<?xml version="1.0" standalone="no"?>
<!DOCTYPE svg PUBLIC "-//W3C//DTD SVG 1.1//EN" "http://www.w3.org/Graphics/SVG/1.1/DTD/svg11.dtd" >
<svg xmlns="http://www.w3.org/2000/svg">
<metadata>Generated by IcoMoon</metadata>
<defs>
<font id="icomoon" horiz-adv-x="1024">
<font-face units-per-em="1024" ascent="896" descent="-128" />
<missing-glyph horiz-adv-x="1024" />
<glyph unicode="&#x20;" horiz-adv-x="0" d="" />
<glyph unicode="&#x78;" glyph-name="x" horiz-adv-x="1001" d="M281 543q-27-1-53-1h-83q-18 0-36.5-6t-32.5-18.5-23-32-9-45.5v-76h912v41q0 16-0.5 30t-0.5 18q0 13-5 29t-17 29.5-31.5 22.5-49.5 9h-133v-97h-438v97zM955 310v-52q0-23 0.5-52t0.5-58-10.5-47.5-26-30-33-16-31.5-4.5q-14-1-29.5-0.5t-29.5 0.5h-32l-45 128h-439l-44-128h-63q-20 0-45 1-25 0-41 9.5t-25.5 23-13.5 29.5-4 30v167h911zM163 247q-12 0-21-8.5t-9-21.5 9-21.5 21-8.5q13 0 22 8.5t9 21.5-9 21.5-22 8.5zM316 123q-8-26-14-48-5-19-10.5-37t-7.5-25-3-15 1-14.5 9.5-10.5 21.5-4h365q23 0 34 12t2 38q-5 13-9.5 30.5t-9.5 34.5q-5 19-11 39h-368zM336 498v228q0 11 2.5 23t10 21.5 20.5 15.5 34 6h188q31 0 51.5-14.5t20.5-52.5v-227h-327z" />
<glyph unicode="&#xe600;" glyph-name="daping" horiz-adv-x="1088" d="M1024 64h-192v64h128c38.4 0 64 25.6 64 64v576c0 38.4-25.6 64-64 64h-832c-38.4 0-64-25.6-64-64v-576c0-38.4 25.6-64 64-64h128v-64h-192c-38.4 0-64 25.6-64 64v704c0 38.4 25.6 64 64 64h960c38.4 0 64-25.6 64-64v-704c0-38.4-25.6-64-64-64zM832-128h-576l288 448 288-448zM704-64l-160 256-160-256h320z" />
<glyph unicode="&#xe601;" glyph-name="message" d="M512 823.718c180.706 0 331.294-144.565 331.294-319.247v-246.965c0-36.141 24.094-66.259 60.235-72.282 24.094-6.024 42.165-24.094 42.165-48.188s-24.094-48.188-54.212-48.188h-764.988c-30.118 0-54.212 24.094-54.212 48.188s18.071 42.165 42.165 48.188c36.141 6.024 60.235 36.141 60.235 72.282v246.965c6.024 174.682 156.612 319.247 337.318 319.247M512 896c-222.871 0-409.6-174.682-409.6-391.529v-246.965c-60.235-12.047-102.4-60.235-102.4-120.471 0-66.259 60.235-120.471 126.494-120.471h764.988c72.282 0 126.494 54.212 126.494 120.471 0 60.235-42.165 108.424-102.4 120.471v246.965c6.024 216.847-174.682 391.529-403.576 391.529zM608.376 16.565c-12.047-42.165-54.212-72.282-96.376-72.282-48.188 0-90.353 30.118-96.376 72.282h-78.306c12.047-78.306 84.329-144.565 174.682-144.565s162.635 66.259 174.682 144.565h-78.306zM608.376 16.565" />
<glyph unicode="&#xe602;" glyph-name="personal" d="M900.042 701.979l-317.979 177.853c-21.558 10.779-48.505 16.168-70.063 16.168s-48.505-5.389-70.063-16.168l-317.979-177.853c-43.116-21.558-70.063-70.063-70.063-118.568v-404.211c0-48.505 26.947-91.621 70.063-118.568l317.979-177.853c21.558-5.389 48.505-10.779 70.063-10.779s48.505 5.389 70.063 16.168l317.979 177.853c43.116 21.558 70.063 70.063 70.063 118.568v398.821c0 48.505-26.947 97.011-70.063 118.568zM549.726-52.547c-10.779-5.389-21.558-10.779-37.726-10.779-10.779 0-26.947 5.389-37.726 10.779l-231.747 129.347c16.168 5.389 32.337 10.779 43.116 10.779 16.168 0 37.726 5.389 64.674 10.779 10.779 0 16.168 5.389 26.947 5.389 48.505 10.779 64.674 21.558 75.453 26.947 5.389 5.389 10.779 16.168 10.779 26.947 0 21.558-5.389 43.116-21.558 59.284 0 5.389-5.389 5.389-10.779 10.779-43.116 32.337-75.453 91.621-75.453 156.295 5.389 107.789 70.063 188.632 156.295 188.632s150.905-80.842 150.905-183.242c0-64.674-26.947-123.958-75.453-156.295l-5.389-5.389c-16.168-21.558-21.558-43.116-26.947-64.674 0-10.779 5.389-21.558 10.779-26.947s21.558-16.168 75.453-26.947c32.337-5.389 70.063-10.779 86.232-16.168 16.168 0 37.726-5.389 53.895-16.168l-231.747-129.347zM905.432 184.589c0-26.947-16.168-48.505-37.726-59.284l-10.779-5.389c-32.337 26.947-75.453 43.116-113.179 43.116-16.168 0-48.505 5.389-80.842 16.168-10.779 0-21.558 5.389-26.947 5.389 59.284 48.505 97.011 123.958 97.011 204.8 0 134.737-97.011 247.916-220.968 247.916s-220.968-113.179-220.968-247.916c0-80.842 37.726-156.295 97.011-204.8 0 0 0-5.389 5.389-5.389-5.389 0-16.168-5.389-26.947-5.389s-16.168-5.389-26.947-5.389c-21.558-5.389-43.116-10.779-53.895-10.779-32.337-5.389-70.063-21.558-102.4-43.116l-21.558 10.779c-21.558 10.779-37.726 37.726-37.726 59.284v398.821c0 26.947 16.168 48.505 37.726 59.284l317.979 177.853c5.389 5.389 21.558 10.779 32.337 10.779s26.947-5.389 37.726-10.779l317.979-177.853c21.558-10.779 37.726-37.726 37.726-59.284v-398.821zM905.432 184.589" />
<glyph unicode="&#xe603;" glyph-name="public-data" d="M921.6 492.089v125.156c-73.956-62.578-227.556-108.089-409.6-108.089s-335.644 39.822-409.6 108.089v-142.222c0-79.644 182.044-153.6 409.6-153.6h11.378c-11.378-11.378-17.067-28.444-22.756-45.511-176.356 0-324.267 45.511-398.222 108.089v-142.222c0-73.956 153.6-136.533 352.711-147.911 0-17.067 0-28.444 5.689-45.511-159.289 5.689-290.133 45.511-358.4 108.089v-85.333c0-79.644 176.356-147.911 398.222-147.911 5.689-17.067 17.067-28.444 28.444-45.511h-17.067c-250.311 0-455.111 85.333-455.111 193.422v631.467c0 113.778 204.8 193.422 455.111 193.422s455.111-79.644 455.111-193.422v-221.867c-17.067 5.689-28.444 5.689-45.511 11.378zM512 850.489c-227.556 0-409.6-73.956-409.6-153.6 0-73.956 182.044-147.911 409.6-147.911s409.6 73.956 409.6 153.6c0 73.956-182.044 147.911-409.6 147.911zM762.311 440.889h11.378c102.4 5.689 187.733-79.644 187.733-187.733h-51.2v-5.689c0 79.644-62.578 142.222-142.222 142.222h-11.378c-73.956 5.689-142.222-62.578-142.222-142.222h-5.689c5.689-79.644 68.267-147.911 142.222-147.911l11.378 5.689c11.378-5.689 22.756 0 34.133-5.689l11.378-45.511c-11.378-5.689-22.756-5.689-39.822-5.689h-11.378c-108.089 0-193.422 91.022-193.422 193.422h5.689c0 108.089 91.022 199.111 193.422 199.111zM967.111 247.467v0zM620.089 59.733v5.689c0-34.133 11.378-68.267 39.822-96.711 22.756-22.756 56.889-39.822 96.711-39.822l11.378 5.689c79.644 0 142.222 62.578 142.222 142.222h5.689c0 79.644-62.578 142.222-142.222 142.222h-39.822l-11.378 45.511c11.378 5.689 22.756 5.689 39.822 5.689h11.378c108.089 0 187.733-85.333 187.733-193.422 0-51.2-22.756-96.711-56.889-136.533-34.133-34.133-85.333-56.889-130.844-56.889h-11.378c-51.2 0-96.711 22.756-130.844 56.889-39.822 39.822-56.889 85.333-56.889 136.533l5.689-11.378 39.822-5.689z" />
<glyph unicode="&#xe604;" glyph-name="help" d="M512 896c-284.444 0-512-227.556-512-512 0-278.756 233.244-512 512-512s512 233.244 512 512c0 284.444-233.244 512-512 512zM512-54.044c-238.933 0-438.044 193.422-438.044 438.044s193.422 438.044 438.044 438.044c244.622 0 438.044-193.422 438.044-438.044s-199.111-438.044-438.044-438.044zM460.8 150.756c0 28.444 22.756 51.2 45.511 51.2 28.444 0 45.511-22.756 45.511-51.2 5.689-28.444-17.067-51.2-39.822-51.2-28.444 0-51.2 22.756-51.2 51.2zM512 668.444c-96.711 0-170.667-73.956-170.667-176.356 0-17.067 17.067-34.133 34.133-34.133s34.133 17.067 34.133 34.133c-5.689 62.578 39.822 108.089 102.4 108.089 56.889 0 102.4-45.511 102.4-102.4 0-51.2-34.133-79.644-62.578-102.4-62.578-45.511-73.956-96.711-73.956-125.156 0-17.067 11.378-34.133 34.133-34.133s34.133 11.378 34.133 34.133c0 0 0 39.822 39.822 62.578 62.578 39.822 96.711 102.4 96.711 159.289-5.689 102.4-79.644 176.356-170.667 176.356zM512 668.444" />
<glyph unicode="&#xe605;" glyph-name="signout" horiz-adv-x="1152" d="M940.8 601.6c-12.8 12.8-38.4 12.8-51.2 0s-12.8-38.4 0-51.2l128-128h-620.8c-12.8 0-25.6-6.4-32-19.2s-6.4-25.6 0-38.4c6.4-12.8 19.2-19.2 32-19.2h627.2l-134.4-134.4c-6.4-6.4-12.8-19.2-6.4-32s12.8-19.2 25.6-25.6c12.8-6.4 25.6 0 32 6.4l211.2 224-211.2 217.6zM684.8-12.8c0-25.6-19.2-44.8-44.8-44.8h-524.8c-25.6 0-44.8 19.2-44.8 44.8v793.6c0 25.6 19.2 44.8 44.8 44.8h524.8c12.8 0 25.6-6.4 32-12.8s12.8-19.2 12.8-32v-217.6h70.4v262.4c0 38.4-32 70.4-70.4 70.4h-614.4c-38.4 0-70.4-32-70.4-70.4v-883.2c0-38.4 32-70.4 70.4-70.4h614.4c38.4 0 70.4 32 70.4 70.4v262.4h-70.4v-217.6zM684.8-12.8" />
<glyph unicode="&#xe606;" glyph-name="group-data" d="M1001.244-54.044c-11.378 0-22.756 11.378-22.756 22.756v39.822c0 68.267-45.511 125.156-108.089 142.222-5.689 0-17.067 5.689-17.067 17.067v22.756s0 5.689 5.689 5.689l5.689 5.689c28.444 11.378 45.511 39.822 45.511 68.267 0 34.133-22.756 62.578-56.889 73.956-11.378 5.689-22.756 17.067-17.067 28.444s17.067 22.756 28.444 17.067c51.2-17.067 91.022-62.578 91.022-119.467 0-34.133-11.378-62.578-34.133-85.333 62.578-34.133 102.4-102.4 102.4-176.356v-39.822c0-11.378-11.378-22.756-22.756-22.756zM864.711 617.244c-73.956-62.578-227.556-108.089-409.6-108.089s-335.644 39.822-409.6 108.089v-142.222c0-79.644 182.044-153.6 409.6-153.6h17.067c-11.378-11.378-17.067-28.444-22.756-45.511-176.356 0-329.956 45.511-403.911 108.089v-142.222c0-73.956 153.6-136.533 352.711-147.911 0-11.378 0-28.444-5.689-45.511-153.6 5.689-284.444 51.2-347.022 108.089v-85.333c0-68.267 147.911-136.533 341.333-147.911v-45.511c-216.178 11.378-386.844 85.333-386.844 187.733v637.156c0 113.778 204.8 193.422 455.111 193.422s455.111-79.644 455.111-193.422v-221.867c-17.067 5.689-28.444 11.378-45.511 11.378v125.156zM455.111 850.489c-227.556 0-409.6-73.956-409.6-153.6 0-73.956 182.044-147.911 409.6-147.911s409.6 73.956 409.6 153.6c0 73.956-182.044 147.911-409.6 147.911zM591.644 173.511c-34.133 28.444-56.889 68.267-56.889 119.467 0 79.644 68.267 147.911 147.911 147.911s147.911-68.267 147.911-147.911c0-45.511-22.756-91.022-56.889-119.467 91.022-34.133 153.6-125.156 153.6-227.556v-51.2c0-11.378-11.378-22.756-22.756-22.756h-443.733c-11.378 0-22.756 11.378-22.756 22.756v51.2c0 102.4 62.578 193.422 153.6 227.556zM779.378 292.978c0 56.889-45.511 96.711-96.711 96.711s-96.711-45.511-96.711-96.711c0-56.889 45.511-96.711 96.711-96.711s96.711 39.822 96.711 96.711zM489.244-76.8h392.533v22.756c0 108.089-85.333 199.111-193.422 199.111s-193.422-91.022-193.422-199.111v-22.756z" />
<glyph unicode="&#xe607;" glyph-name="data-analysis" d="M512 896l-483.556-256v-512l483.556-256 483.556 256v512l-483.556 256zM887.467 634.311l-182.044-96.711-193.422 108.089-210.489-119.467-193.422 91.022 403.911 210.489 375.467-193.422zM341.333 446.578l136.533-62.578v-170.667l-136.533 79.644v153.6zM534.756 384l147.911 73.956v-170.667l-147.911-79.644v176.356zM506.311 429.511l-142.222 68.267 147.911 79.644 130.844-73.956-136.533-73.956zM85.333 566.044l199.111-91.022v-216.178l193.422-108.089v-182.044l-392.533 193.422v403.911zM534.756-48.356v182.044l204.8 113.778v244.622l193.422 102.4v-426.667l-398.222-216.178zM534.756-48.356" />
<glyph unicode="&#xe608;" glyph-name="survey" d="M740.894-55.718c0-6.024-6.024-6.024-6.024-6.024h-662.588c-6.024 0-6.024 6.024-6.024 6.024v879.435c0 6.024 6.024 6.024 6.024 6.024h662.588c6.024 0 6.024-6.024 6.024-6.024v-144.565h66.259v144.565c0 42.165-30.118 72.282-72.282 72.282h-662.588c-42.165 0-72.282-30.118-72.282-72.282v-879.435c0-42.165 30.118-72.282 72.282-72.282h662.588c42.165 0 72.282 30.118 72.282 72.282v132.518h-66.259v-132.518zM240.941 335.812c-18.071 0-30.118-12.047-30.118-30.118s12.047-30.118 30.118-30.118h138.541c18.071 0 30.118 12.047 30.118 30.118s-12.047 30.118-30.118 30.118h-138.541zM843.294 661.082c-6.024 0-18.071-6.024-18.071-12.047l-325.271-391.529c-6.024-6.024-6.024-12.047-12.047-18.071l-48.188-210.824c0-12.047 0-24.094 12.047-30.118 6.024-6.024 12.047-6.024 18.071-6.024h12.047l198.776 84.329c6.024 0 12.047 6.024 18.071 12.047l313.224 415.624c12.047 6.024 12.047 12.047 12.047 24.094-12.047 84.329-90.353 144.565-180.706 132.518zM518.024 76.8l30.118 114.447c18.071 0 36.141-6.024 54.212-12.047 18.071-12.047 24.094-30.118 30.118-48.188l-114.447-54.212zM680.659 173.176c-12.047 24.094-24.094 42.165-42.165 54.212s-36.141 24.094-54.212 24.094l198.776 246.965c24.094 0 42.165-6.024 60.235-18.071s30.118-30.118 36.141-54.212l-198.776-252.988zM921.6 486.4c-12.047 18.071-24.094 30.118-42.165 42.165s-36.141 18.071-54.212 24.094l36.141 42.165c42.165 0 78.306-30.118 90.353-66.259l-30.118-42.165zM584.282 480.376c0 18.071-12.047 30.118-30.118 30.118h-313.224c-18.071 0-30.118-12.047-30.118-30.118s12.047-30.118 30.118-30.118h307.2c24.094 0 36.141 12.047 36.141 30.118zM554.165 679.153h-313.224c-18.071 0-30.118-12.047-30.118-30.118s12.047-30.118 30.118-30.118h307.2c18.071 0 30.118 12.047 30.118 30.118s-6.024 30.118-24.094 30.118z" />
<glyph unicode="&#xe609;" glyph-name="data-insight" d="M512-128c-283.106 0-512 228.894-512 512s228.894 512 512 512c54.212 0 102.4-6.024 150.588-24.094l-36.141-54.212c-36.141 12.047-72.282 18.071-114.447 18.071-246.965 0-451.765-204.8-451.765-451.765s204.8-451.765 451.765-451.765 451.765 204.8 451.765 451.765c0 42.165-6.024 78.306-18.071 114.447l54.212 36.141c18.071-48.188 24.094-96.376 24.094-150.588 0-283.106-228.894-512-512-512zM512 173.176c-114.447 0-210.824 96.376-210.824 210.824s96.376 210.824 210.824 210.824 210.824-96.376 210.824-210.824-96.376-210.824-210.824-210.824zM512 534.588c-84.329 0-150.588-66.259-150.588-150.588s66.259-150.588 150.588-150.588 150.588 66.259 150.588 150.588-66.259 150.588-150.588 150.588zM843.294 594.824c-66.259 0-120.471 54.212-120.471 120.471s54.212 120.471 120.471 120.471 120.471-54.212 120.471-120.471-54.212-120.471-120.471-120.471zM843.294 775.529c-36.141 0-60.235-24.094-60.235-60.235s24.094-60.235 60.235-60.235 60.235 24.094 60.235 60.235-24.094 60.235-60.235 60.235z" />
<glyph unicode="&#xe60a;" glyph-name="all-members" horiz-adv-x="1339" d="M913.723 817.231h378.092c23.631 0 47.262 15.754 47.262 39.385s-23.631 39.385-47.262 39.385h-378.092c-23.631 0-47.262-15.754-47.262-39.385s23.631-39.385 47.262-39.385zM1299.692 423.385h-236.308c-23.631 0-39.385-15.754-39.385-39.385s15.754-39.385 39.385-39.385h236.308c23.631 0 39.385 15.754 39.385 39.385s-15.754 39.385-39.385 39.385zM708.923 399.754c63.015 55.138 102.4 126.031 102.4 220.554 0 157.538-118.154 275.692-267.815 275.692s-275.692-126.031-275.692-275.692c0-86.646 39.385-165.415 102.4-220.554-212.677-70.892-370.215-283.569-370.215-527.754h86.646c0 259.938 204.8 464.738 448.985 464.738 252.062 0 448.985-204.8 448.985-464.738h86.646c7.877 244.185-149.662 456.862-362.338 527.754zM543.508 431.262c-63.015 0-126.031 31.508-157.538 94.523-39.385 55.138-39.385 126.031-7.877 189.046 31.508 55.138 94.523 94.523 157.538 94.523 94.523 0 173.292-86.646 173.292-189.046 7.877-102.4-70.892-189.046-165.415-189.046zM1291.815 659.692h-299.323c-23.631 0-47.262-15.754-47.262-39.385s23.631-39.385 47.262-39.385h299.323c23.631 0 47.262 15.754 47.262 39.385s-23.631 39.385-47.262 39.385zM1299.692 187.077h-78.769c-23.631 0-39.385-15.754-39.385-39.385s15.754-39.385 39.385-39.385h78.769c23.631 0 39.385 15.754 39.385 39.385s-15.754 39.385-39.385 39.385z" />
<glyph unicode="&#xe60b;" glyph-name="my-data" d="M869.333 602.667c-69.333-58.667-213.333-101.333-384-101.333s-314.667 37.333-384 101.333v-133.333c0-74.667 170.667-144 384-144h10.667c-10.667-10.667-16-26.667-21.333-42.667-165.333 0-304 42.667-373.333 101.333v-133.333c0-69.333 144-128 330.667-138.667 0-16 0-26.667 5.333-42.667-149.333 5.333-272 42.667-336 101.333v-80c0-74.667 165.333-138.667 373.333-138.667 5.333-16 16-26.667 26.667-42.667h-16c-234.667 0-426.667 80-426.667 181.333v592c0 106.667 192 181.333 426.667 181.333s426.667-74.667 426.667-181.333v-208c-16 5.333-26.667 10.667-42.667 10.667v117.333zM485.333 821.333c-213.333 0-384-69.333-384-144 0-69.333 170.667-138.667 384-138.667s384 69.333 384 144c0 69.333-170.667 138.667-384 138.667zM656 149.333c-37.333 26.667-64 74.667-64 128 0 90.667 69.333 160 160 160s160-69.333 160-160c0-53.333-26.667-101.333-64-128 69.333-37.333 117.333-106.667 117.333-192h-53.333c0 90.667-69.333 160-160 160s-160-69.333-160-160h-53.333c0 85.333 48 154.667 117.333 192zM858.667 277.333c0 58.667-48 106.667-106.667 106.667s-106.667-48-106.667-106.667 48-106.667 106.667-106.667 106.667 48 106.667 106.667z" />
<glyph unicode="&#xe60c;" glyph-name="project2" horiz-adv-x="1092" d="M920 684h-354l-96 150h-306c-54 0-102-42-102-102v-702c0-54 48-96 102-96h756c54 0 102 42 102 102v546c0 60-48 102-102 102zM164 774h282l90-150h384c24 0 42-18 42-42v-48h-840v198c0 24 18 42 42 42zM920-6h-756c-24 0-42 18-42 42v438h840v-438c0-24-18-42-42-42z" />
<glyph unicode="&#xe60d;" glyph-name="star" d="M1018.738 515.413c-9.899 29.355-35.157 50.859-65.877 55.637l-255.659 38.912-110.933 237.568c-13.312 29.013-42.667 47.787-74.752 47.787-31.744 0-61.099-18.773-74.411-47.445l-110.933-237.909-256-39.253c-30.72-4.779-55.637-25.941-65.877-55.637-9.899-30.037-2.389-62.464 19.456-84.992l187.733-192.853-43.691-267.264c-5.461-31.744 7.509-63.147 34.133-81.92 13.995-9.899 30.379-15.019 47.445-15.019 13.995 0 27.648 3.413 39.936 10.24l222.549 123.563 223.573-123.904c26.965-14.336 61.099-12.629 86.699 5.12 25.941 18.773 38.912 49.835 33.792 81.579l-43.349 267.264 187.733 192.853c21.163 23.211 28.331 55.637 18.432 85.675zM953.543 479.232l-199.68-205.483c-7.851-7.851-11.264-19.115-9.216-30.379l46.421-285.355c0.683-5.12-1.365-9.899-5.803-12.971-5.461-3.755-14.677-4.096-19.797-1.365l-238.251 132.437c-9.557 5.461-21.163 5.12-30.72 0l-237.909-132.096c-5.803-3.072-14.336-2.731-19.456 0.683-2.389 1.707-7.509 6.144-6.144 13.312l46.421 285.355c1.707 10.923-1.707 22.187-9.216 30.379l-199.68 205.483c-3.413 3.755-4.779 8.533-3.413 12.971 1.707 5.461 6.827 9.216 13.312 10.581l272.725 41.984c10.581 1.707 20.139 8.875 24.917 18.773l118.101 253.952c2.389 5.461 8.875 8.875 15.36 8.875 6.827 0 12.971-3.755 15.701-9.216l118.784-253.952c4.779-10.24 13.995-17.408 24.917-18.773l272.725-41.643c6.485-1.024 11.947-5.12 13.653-10.24 1.024-4.437-0.341-9.557-3.755-13.312zM953.543 479.232" />
<glyph unicode="&#xe60e;" glyph-name="project-active" horiz-adv-x="1165" d="M806 0h-660l198 402h660l-198-402zM1052 462h-732c-12 0-24-6-30-18l-168-324v648h222l90-84c6-6 12-6 24-6h408v-126c0-18 12-30 30-30s30 12 30 30v156c0 18-12 30-30 30h-420l-90 90c-6 0-18 6-24 6h-270c-6 0-12-6-18-12s-12-12-12-18v-834c0-6 0-12 6-18 0-6 6-6 12-6h744c12 0 24 6 30 18l228 456c6 12 6 24 0 30-12 6-24 12-30 12zM1052 462" />
<glyph unicode="&#xe60f;" glyph-name="project" horiz-adv-x="1160" d="M1022 672v42c0 30-24 60-54 60h-384l-24 42c-6 12-18 18-30 18h-420c-24 0-48-24-48-48v-798c0-30 24-54 48-54h918c30 0 48 24 48 48v630c6 30-30 60-54 60zM938 714c12 0 24-12 24-24v-18h-324l-24 42h324zM1022 18c0-12-12-24-24-24h-846c-18 0-30 12-30 24v732c0 12 12 24 30 24h348c12 0 18-6 24-12l72-132c6-12 18-18 30-18h372c18 0 30-12 30-30v-564zM1022 18" />
<glyph unicode="&#xe610;" glyph-name="editor" horiz-adv-x="1177" d="M658.286 859.429l-555.886-570.514s-7.314-7.314-7.314-14.629l-51.2-285.257c0-14.629 7.314-29.257 29.257-29.257l277.943 58.514c7.314 0 7.314 0 14.629 7.314l555.886 570.514c43.886 43.886 43.886 117.029 0 160.914l-102.4 102.4c-43.886 51.2-117.029 51.2-160.914 0zM848.457 625.371l-58.514-51.2c-7.314-7.314-21.943-7.314-29.257 0l-117.029 124.343c-7.314 7.314-7.314 21.943 0 29.257l51.2 51.2c21.943 29.257 58.514 43.886 102.4 0l51.2-51.2c29.257-21.943 29.257-73.143 0-102.4 7.314 7.314 7.314 7.314 0 0zM197.486 274.286l365.714 373.029c7.314 7.314 21.943 7.314 29.257 0l117.029-124.343c7.314-7.314 7.314-21.943 0-29.257l-365.714-373.029s-7.314-7.314-14.629-7.314l-160.914-36.571c-14.629 0-29.257 14.629-29.257 29.257l36.571 153.6c14.629 7.314 14.629 7.314 21.943 14.629zM1126.4-128h-1082.514c-29.257 0-43.886 14.629-43.886 43.886s14.629 43.886 43.886 43.886h1089.829c21.943 0 43.886-14.629 43.886-43.886-7.314-29.257-21.943-43.886-51.2-43.886zM1126.4-128" />
<glyph unicode="&#xe611;" glyph-name="share" d="M401.723 273.723c15.754-15.754 39.385-15.754 63.015 0l480.492 480.492v-228.431c0-23.631 15.754-39.385 39.385-39.385s39.385 15.754 39.385 39.385v244.185c0 31.508-15.754 63.015-39.385 86.646s-55.138 39.385-86.646 39.385h-252.062c-23.631 0-47.262-15.754-47.262-39.385s15.754-39.385 39.385-39.385h236.308l-472.615-480.492c-15.754-15.754-15.754-47.262 0-63.015zM945.231 265.846v-236.308c0-23.631-7.877-39.385-23.631-55.138s-31.508-23.631-55.138-23.631h-708.923c-47.262 0-78.769 31.508-78.769 78.769v708.923c0 47.262 31.508 78.769 78.769 78.769h236.308v78.769h-236.308c-39.385 0-78.769-15.754-110.277-47.262s-47.262-70.892-47.262-110.277v-708.923c0-39.385 15.754-78.769 47.262-110.277s70.892-47.262 110.277-47.262h708.923c86.646 0 157.538 70.892 157.538 157.538v236.308h-78.769z" />
<glyph unicode="&#xe612;" glyph-name="menu" d="M1024 344.615v393.846c0 39.385-15.754 78.769-47.262 110.277s-70.892 47.262-110.277 47.262h-708.923c-39.385 0-78.769-15.754-110.277-47.262s-47.262-70.892-47.262-110.277v-708.923c0-39.385 15.754-78.769 47.262-110.277s70.892-47.262 110.277-47.262h708.923c86.646 0 157.538 70.892 157.538 157.538v315.077zM921.6-25.6c-15.754-15.754-31.508-23.631-55.138-23.631h-708.923c-47.262 0-78.769 31.508-78.769 78.769v708.923c0 47.262 31.508 78.769 78.769 78.769h708.923c47.262 0 78.769-31.508 78.769-78.769v-708.923c0-23.631-7.877-39.385-23.631-55.138zM748.308 659.692h-472.615c-23.631 0-39.385-15.754-39.385-39.385s15.754-39.385 39.385-39.385h472.615c23.631 0 39.385 15.754 39.385 39.385s-15.754 39.385-39.385 39.385zM748.308 423.385h-472.615c-23.631 0-39.385-15.754-39.385-39.385s15.754-39.385 39.385-39.385h472.615c23.631 0 39.385 15.754 39.385 39.385s-15.754 39.385-39.385 39.385zM748.308 187.077h-472.615c-23.631 0-39.385-15.754-39.385-39.385s15.754-39.385 39.385-39.385h472.615c23.631 0 39.385 15.754 39.385 39.385s-15.754 39.385-39.385 39.385z" />
<glyph unicode="&#xe613;" glyph-name="tiling" d="M422 834h-300c-36 0-60-24-60-60v-300c0-36 24-60 60-60h300c36 0 60 24 60 60v300c0 36-24 60-60 60zM422 504c0-18-12-30-30-30h-240c-18 0-30 12-30 30v240c0 18 12 30 30 30h240c18 0 30-12 30-30v-240zM902 834h-300c-36 0-60-24-60-60v-300c0-36 24-60 60-60h300c36 0 60 24 60 60v300c0 36-24 60-60 60zM902 504c0-18-12-30-30-30h-240c-18 0-30 12-30 30v240c0 18 12 30 30 30h240c18 0 30-12 30-30v-240zM422 354h-300c-36 0-60-24-60-60v-300c0-36 24-60 60-60h300c36 0 60 24 60 60v300c0 36-24 60-60 60zM422 24c0-18-12-30-30-30h-240c-18 0-30 12-30 30v240c0 18 12 30 30 30h240c18 0 30-12 30-30v-240zM902 354h-300c-36 0-60-24-60-60v-300c0-36 24-60 60-60h300c36 0 60 24 60 60v300c0 36-24 60-60 60zM902 24c0-18-12-30-30-30h-240c-18 0-30 12-30 30v240c0 18 12 30 30 30h240c18 0 30-12 30-30v-240z" />
<glyph unicode="&#xe614;" glyph-name="copy" d="M640.571 62.571c0-19.286-6.429-32.143-19.286-45s-25.714-19.286-45-19.286h-385.714c-19.286 0-32.143 6.429-45 19.286s-19.286 25.714-19.286 45v385.714c0 19.286 6.429 32.143 19.286 45s25.714 19.286 45 19.286h64.286v64.286h-64.286c-32.143 0-64.286-12.857-90-38.571s-38.571-57.857-38.571-90v-385.714c0-32.143 12.857-64.286 38.571-90s57.857-38.571 90-38.571h385.714c32.143 0 64.286 12.857 90 38.571s38.571 57.857 38.571 90v64.286h-64.286v-64.286zM833.429 834h-385.714c-32.143 0-64.286-12.857-90-38.571s-38.571-57.857-38.571-90v-385.714c0-32.143 12.857-64.286 38.571-90s57.857-38.571 90-38.571h385.714c70.714 0 128.571 57.857 128.571 128.571v385.714c0 32.143-12.857 64.286-38.571 90s-57.857 38.571-90 38.571zM897.714 319.714c0-19.286-6.429-32.143-19.286-45s-25.714-19.286-45-19.286h-385.714c-38.571 0-64.286 25.714-64.286 64.286v385.714c0 38.571 25.714 64.286 64.286 64.286h385.714c38.571 0 64.286-25.714 64.286-64.286v-385.714zM897.714 319.714" />
<glyph unicode="&#xe615;" glyph-name="sort-desc" horiz-adv-x="1268" d="M1220.923 187.077h-401.723c-23.631 0-39.385-15.754-39.385-39.385s15.754-39.385 39.385-39.385h409.6c23.631 0 39.385 15.754 39.385 39.385-7.877 23.631-23.631 39.385-47.262 39.385zM567.138 344.615h653.785c23.631 0 39.385 15.754 39.385 39.385s-15.754 39.385-39.385 39.385h-653.785c-15.754 0-39.385-15.754-39.385-39.385s23.631-39.385 39.385-39.385zM567.138 580.923h653.785c23.631 0 39.385 15.754 39.385 39.385s-15.754 39.385-39.385 39.385h-653.785c-15.754 0-39.385-15.754-39.385-39.385s23.631-39.385 39.385-39.385zM567.138 817.231h653.785c23.631 0 39.385 15.754 39.385 39.385s-15.754 39.385-39.385 39.385h-653.785c-15.754 0-39.385-15.754-39.385-39.385s23.631-39.385 39.385-39.385zM1220.923-49.231h-567.138c-23.631 0-39.385-15.754-39.385-39.385s15.754-39.385 39.385-39.385h567.138c23.631 0 39.385 15.754 39.385 39.385s-15.754 39.385-39.385 39.385zM677.415 257.969c-15.754 15.754-47.262 15.754-63.015 0l-252.062-244.185v842.831c7.877 23.631-15.754 39.385-31.508 39.385-23.631 0-47.262-15.754-47.262-39.385v-850.708l-212.677 212.677c-15.754 15.754-39.385 15.754-55.138 0s-15.754-39.385 0-55.138l283.569-275.692c0-7.877 15.754-15.754 23.631-15.754s7.877 0 15.754 7.877c7.877 0 15.754 7.877 15.754 7.877l315.077 307.2c31.508 15.754 31.508 47.262 7.877 63.015z" />
<glyph unicode="&#xe616;" glyph-name="star-ugly" horiz-adv-x="1092" d="M266.24-46.080l232.107 88.747 47.787 20.48 47.787-20.48 232.107-88.747-6.827 252.587v47.787l34.133 40.96 143.36 177.493-232.107 61.44-47.787 13.653-34.133 40.96-136.533 197.973-143.36-197.973-27.307-40.96-40.96-13.653-232.107-61.44 143.36-177.493 34.133-40.96v-47.787l-13.653-252.587M880.64-128l-334.507 136.533-334.507-136.533 6.827 361.813-218.453 273.067 341.333 102.4 204.8 286.72 204.8-286.72 341.333-102.4-218.453-266.24 6.827-368.64zM880.64-128" />
<glyph unicode="&#xe617;" glyph-name="dataviz" horiz-adv-x="1029" d="M488.229 84.114c7.314-7.314 14.629-14.629 29.257-14.629 7.314 0 21.943 7.314 29.257 14.629s21.943 21.943 29.257 36.571c109.714 131.657 263.314 292.571 263.314 453.486 0 175.543-146.286 321.829-321.829 321.829s-314.514-146.286-314.514-329.143c0-153.6 146.286-321.829 256-446.171 7.314-7.314 21.943-21.943 29.257-36.571zM517.486 822.857c131.657 0 241.371-109.714 241.371-248.686 7.314-175.543-168.229-314.514-241.371-409.6-73.143 87.771-241.371 234.057-241.371 409.6 0 131.657 109.714 248.686 241.371 248.686zM656.457 588.8c0 80.457-58.514 138.971-138.971 138.971-73.143 0-138.971-65.829-138.971-138.971s65.829-138.971 138.971-138.971c80.457 0 138.971 58.514 138.971 138.971zM517.486 522.971c-36.571 0-65.829 29.257-65.829 65.829s29.257 65.829 65.829 65.829 65.829-29.257 65.829-65.829-29.257-65.829-65.829-65.829zM1029.486-76.8l-124.343 299.886c-14.629 14.629-21.943 21.943-36.571 21.943h-95.086c-21.943 0-36.571-14.629-36.571-36.571s14.629-36.571 36.571-36.571h73.143l95.086-226.743h-841.143l102.4 226.743h58.514c21.943 0 36.571 14.629 36.571 36.571s-14.629 36.571-36.571 36.571h-80.457c-14.629 0-21.943-7.314-29.257-21.943l-146.286-299.886c-7.314-14.629-7.314-21.943 0-36.571 14.629-7.314 21.943-14.629 36.571-14.629h950.857c14.629 0 21.943 7.314 29.257 14.629 7.314 14.629 7.314 29.257 7.314 36.571z" />
<glyph unicode="&#xe618;" glyph-name="delete" d="M819.2 561.493c-20.48 0-34.133-13.653-34.133-34.133v-587.093h-546.133v587.093c0 20.48-13.653 34.133-34.133 34.133s-34.133-13.653-34.133-34.133v-621.227c0-20.48 13.653-34.133 34.133-34.133h621.227c20.48 0 34.133 13.653 34.133 34.133v621.227c-6.827 20.48-20.48 34.133-40.96 34.133zM955.733 698.027h-204.8v88.747c0 61.44-47.787 109.227-102.4 109.227h-259.413c-54.613 0-102.4-47.787-102.4-109.227v-88.747h-218.453c-20.48 0-34.133-13.653-34.133-34.133s13.653-40.96 34.133-40.96h887.467c20.48 0 34.133 20.48 34.133 40.96s-13.653 34.133-34.133 34.133zM675.84 698.027h-320.853v88.747c0 20.48 13.653 34.133 34.133 34.133h259.413c20.48 0 34.133-13.653 34.133-34.133v-88.747zM648.533 110.933v409.6c0 20.48-13.653 34.133-34.133 34.133s-34.133-13.653-34.133-34.133v-409.6c0-20.48 13.653-34.133 34.133-34.133s34.133 13.653 34.133 34.133zM443.733 110.933v409.6c0 20.48-13.653 34.133-34.133 34.133s-34.133-13.653-34.133-34.133v-409.6c0-20.48 13.653-34.133 34.133-34.133s34.133 13.653 34.133 34.133z" />
<glyph unicode="&#xe619;" glyph-name="search" d="M968.906-75.484c-13.677-13.677-27.355-20.516-41.032-20.516s-34.194 6.839-41.032 20.516l-184.646 184.646c-164.13-123.097-382.969-116.258-533.421 27.355-170.968 157.291-177.807 430.84-20.516 601.808 164.13 164.13 430.84 170.968 601.808 0 150.452-150.452 164.13-382.969 34.194-547.099l184.646-184.646c13.677-13.677 20.516-27.355 20.516-41.032s-6.839-27.355-20.516-41.032zM688.518 622.067c-54.71 75.226-143.613 123.097-246.194 123.097s-184.646-47.871-239.356-123.097c-82.065-102.581-82.065-253.033 0-355.614 54.71-82.065 143.613-123.097 246.194-123.097s184.646 47.871 246.194 123.097c68.387 109.42 68.387 253.033-6.839 355.614zM688.518 622.067" />
<glyph unicode="&#xe61a;" glyph-name="data-editor" horiz-adv-x="1027" d="M941.609 28.935c0-23.54-7.847-39.234-23.54-54.927s-31.387-23.54-54.927-23.54h-706.207c-47.080 0-78.467 31.387-78.467 78.467v706.207c0 47.080 31.387 78.467 78.467 78.467h392.337v78.467h-392.337c-39.234 0-78.467-15.693-109.854-47.080s-47.080-70.621-47.080-109.854v-706.207c0-39.234 15.693-78.467 47.080-109.854s70.621-47.080 109.854-47.080h706.207c86.314 0 156.935 70.621 156.935 156.935v392.337h-78.467v-392.337zM400.184 272.184c15.693-15.693 39.234-15.693 54.927 0l557.119 557.119c15.693 15.693 15.693 39.234 0 54.927s-39.234 15.693-54.927 0l-557.119-557.119c-15.693-15.693-15.693-39.234 0-54.927z" />
<glyph unicode="&#xe61b;" glyph-name="data-preview" d="M927.642 493.944l-337.877 337.877c-21.453 21.453-48.268 32.179-80.447 32.179-26.816 0-53.631-10.726-75.084-32.179l-337.877-337.877c-42.905-42.905-42.905-107.263 0-150.168l187.709-187.709 37.542 37.542-187.709 187.709c-10.726 5.363-16.089 21.453-16.089 37.542s5.363 26.816 16.089 37.542l337.877 337.877c21.453 21.453 53.631 21.453 75.084 0l337.877-337.877c21.453-21.453 21.453-53.631 0-75.084l-187.709-187.709 37.542-37.542 187.709 187.709c21.453 21.453 32.179 48.268 32.179 75.084 5.363 26.816-5.363 53.631-26.816 75.084zM482.503-96h53.631v321.788h-53.631zM509.318 601.207c-101.899 0-187.709-85.81-187.709-187.709s85.81-187.709 187.709-187.709 187.709 85.81 187.709 187.709c0 107.263-80.447 187.709-187.709 187.709zM509.318 279.419c-75.084 0-134.078 58.994-134.078 134.078s64.358 134.078 134.078 134.078 134.078-58.994 134.078-134.078c0-69.721-58.994-134.078-134.078-134.078z" />
<glyph unicode="&#xe61c;" glyph-name="download" horiz-adv-x="1097" d="M664.414 49.055l-73.012-65.711v365.062c-7.301 21.904-21.904 36.506-43.807 36.506-14.602 0-36.506-14.602-36.506-36.506v-372.364l-80.314 65.711c-14.602 14.602-43.807 14.602-58.41 0s-14.602-36.506 0-43.807l124.121-109.519c21.904-21.904 65.711-21.904 87.615 0l124.121 109.519c14.602 14.602 14.602 36.506 0 43.807-7.301 21.904-29.205 21.904-43.807 7.301zM854.246 640.456c-14.602 146.025-146.025 255.544-306.652 255.544s-292.050-109.519-306.652-255.544c-138.724-7.301-240.941-109.519-240.941-240.941 0-124.121 116.82-233.64 255.544-233.64h138.724v73.012h-138.724c-102.217 0-175.23 73.012-175.23 160.627s73.012 160.627 167.929 167.929h65.711l7.301 58.41c7.301 116.82 109.519 197.134 226.339 197.134s219.037-80.314 233.64-189.832l7.301-58.41h65.711c94.916-7.301 160.627-80.314 160.627-167.929 0-94.916-73.012-167.929-175.23-167.929h-138.724v-73.012h138.724c138.724 0 255.544 102.217 255.544 233.64s-102.217 233.64-240.941 240.941z" />
<glyph unicode="&#xe61d;" glyph-name="group" horiz-adv-x="1323" d="M800.451 420.056c57.69 50.479 93.746 122.592 93.746 209.127 0 144.225-115.38 266.817-252.394 266.817-129.803-7.211-245.183-122.592-245.183-274.028 0-86.535 36.056-158.648 93.746-209.127-151.437-64.901-259.606-223.549-259.606-411.042v-86.535c0-21.634 21.634-43.268 43.268-43.268h749.972c21.634 0 43.268 21.634 43.268 43.268v86.535c0 194.704-108.169 353.352-266.817 418.254zM649.014 802.254c93.746 0 165.859-79.324 165.859-173.070s-72.113-173.070-165.859-173.070c-93.746-7.211-165.859 72.113-165.859 165.859 0 100.958 72.113 180.282 165.859 180.282zM980.732-34.254h-663.437v43.268c0 194.704 151.437 353.352 331.718 353.352 187.493 0 331.718-158.648 331.718-353.352v-43.268zM302.873 405.634v36.056c0 7.211 0 7.211-7.211 7.211 0 7.211-7.211 7.211-14.423 14.423-43.268 21.634-72.113 64.901-72.113 122.592s36.056 115.38 93.746 129.803c21.634 7.211 36.056 28.845 28.845 50.479 0 21.634-21.634 36.056-50.479 28.845-93.746-21.634-158.648-108.169-158.648-216.338 0-57.69 21.634-108.169 57.69-144.225-108.169-57.69-180.282-180.282-180.282-310.085v-64.901c0-21.634 21.634-43.268 43.268-43.268s43.268 21.634 43.268 43.268v64.901c0 122.592 79.324 223.549 187.493 252.394 14.423 0 21.634 14.423 28.845 28.845zM1117.746 434.479c36.056 36.056 57.69 93.746 57.69 144.225 0 100.958-64.901 187.493-151.437 209.127-21.634 7.211-43.268-7.211-50.479-28.845s7.211-50.479 28.845-50.479c57.69-14.423 93.746-64.901 93.746-129.803 0-50.479-28.845-100.958-72.113-122.592-14.423 0-21.634 0-21.634-7.211l-7.211-7.211v-36.056c7.211-14.423 21.634-21.634 36.056-28.845 108.169-28.845 187.493-137.014 187.493-252.394v-64.901c0-21.634 21.634-43.268 43.268-43.268s43.268 21.634 43.268 43.268v64.901c-7.211 129.803-79.324 252.394-187.493 310.085zM1117.746 434.479" />
<glyph unicode="&#xe61e;" glyph-name="arrow-left" d="M543.152-64.985l-378.092 441.108 393.846 456.862c15.754 15.754 7.877 39.385-7.877 55.138 0 7.877-15.754 7.877-23.631 7.877s-15.754-7.877-23.631-15.754l-417.477-480.492c-7.877-15.754-7.877-31.508 0-47.262l393.846-464.738c7.877-7.877 15.754-15.754 31.508-15.754 7.877 0 23.631 0 23.631 7.877 15.754 15.754 15.754 39.385 7.877 55.138zM464.383 399.754c-7.877-15.754-7.877-31.508 0-47.262l393.846-464.738c7.877-7.877 15.754-15.754 23.631-15.754s23.631 0 23.631 7.877c15.754 15.754 15.754 39.385 7.877 55.138l-370.215 441.108 393.846 456.862c15.754 15.754 7.877 39.385-7.877 55.138-7.877 7.877-15.754 7.877-23.631 7.877s-15.754-7.877-23.631-15.754l-417.477-480.492zM464.383 399.754" />
<glyph unicode="&#xe61f;" glyph-name="tip" d="M512 896c-285.257 0-512-226.743-512-512s226.743-512 512-512 512 226.743 512 512-226.743 512-512 512zM599.771 142.629c-43.886-73.143-87.771-124.343-168.229-124.343-51.2 7.314-73.143 51.2-65.829 87.771l102.4 351.086c0 7.314 0 14.629-7.314 21.943s-21.943-7.314-36.571-21.943l-58.514-73.143v43.886c43.886 73.143 117.029 131.657 168.229 131.657 51.2-7.314 73.143-43.886 65.829-87.771l-102.4-351.086c0-7.314 0-14.629 7.314-21.943 7.314 0 21.943 7.314 36.571 21.943l58.514 80.457c7.314-21.943 0-43.886 0-58.514zM585.143 603.429c-36.571 0-65.829 29.257-65.829 73.143s29.257 73.143 65.829 73.143 73.143-29.257 73.143-73.143-29.257-73.143-73.143-73.143z" />
<glyph unicode="&#xe620;" glyph-name="refresh" d="M893.901 468.386c0.202 2.532-0.137 4.995-1.177 7.227-1.314 2.824-3.584 4.88-6.401 6.332-1.562 1.373-3.269 2.55-5.164 3.27-5.161 1.982-10.309 0.782-14.344-2.588-2.196-0.68-4.399-1.493-6.59-2.641l-31.039-16.188c-61.199 116.657-179.488 194.511-315.896 194.511-145.002 0-269.476-88.036-326.722-217.1-0.163-0.347-0.366-0.65-0.512-1.006-0.703-1.597-1.676-3.021-2.359-4.63l1.378-0.137c-0.369-1.758-1.083-3.393-1.083-5.258 0-14.753 12.184-26.712 27.213-26.712 15.003 0 27.157 11.929 27.192 26.649l0.092-0.010c52.64 105.262 151.595 174.452 273.344 174.452 118.694 0 219.481-60.135 273.341-161.037l-38.426-22.716c-2.751-1.439-5.171-3.184-7.362-5.054-5.643-0.96-10.289-4.733-12.105-10.795-3.055-10.171 2.92-22.78 13.342-28.149l111.187-50.047c1.464-1.223 3.026-2.275 4.766-2.942 4.379-1.678 8.745-1.057 12.434 1.202 3.941 1.719 7.069 4.995 8.486 9.695 0.558 1.873 0.718 3.831 0.696 5.805l15.936 116.343c0.746 3.895 0.568 7.82-0.227 11.523zM838.886 173.044l-1.317 0.132c0.392 1.806 1.113 3.495 1.113 5.417 0 14.756-12.179 26.718-27.208 26.718-15.022 0-27.208-11.961-27.208-26.718 0-0.033 0.020-0.063 0.020-0.097l-0.196 0.020c-52.639-105.261-151.59-174.451-273.343-174.451-118.689 0-219.483 60.129-273.344 161.032l38.434 22.716c2.746 1.439 5.164 3.184 7.354 5.058 5.652 0.963 10.289 4.728 12.107 10.8 3.052 10.158-2.922 22.775-13.337 28.144l-111.195 50.052c-1.457 1.223-3.026 2.275-4.766 2.942-4.374 1.673-8.739 1.055-12.429-1.208-3.943-1.724-7.071-5.003-8.485-9.695-0.556-1.873-0.72-3.831-0.701-5.8l-15.925-116.353c-0.751-3.884-0.578-7.82 0.224-11.518-0.202-2.532 0.132-4.995 1.172-7.229 1.312-2.82 3.594-4.88 6.399-6.325 1.569-1.373 3.269-2.555 5.164-3.286 5.171-1.974 10.311-0.772 14.349 2.605 2.191 0.667 4.401 1.49 6.59 2.636l31.034 16.185c61.199-116.667 179.499-194.506 315.904-194.506 145.021 0 269.517 88.060 326.75 217.149 0.186 0.397 0.418 0.746 0.586 1.154 0.667 1.529 1.599 2.886 2.251 4.425z" />
<glyph unicode="&#xe621;" glyph-name="star-fill" horiz-adv-x="1070" d="M587.057 863.827l120.763-244.701c8.395-16.757 24.257-28.697 43.101-31.515l0.316-0.039 270.050-39.243c28.078-4.192 49.369-28.138 49.369-57.057 0-16.179-6.664-30.801-17.396-41.272l-0.012-0.012-195.409-190.472c-10.742-10.483-17.404-25.104-17.404-41.281 0-3.446 0.302-6.821 0.882-10.1l-0.051 0.347 46.117-268.934c0.528-2.93 0.829-6.302 0.829-9.745 0-31.85-25.82-57.67-57.67-57.67-9.81 0-19.047 2.449-27.135 6.77l0.31-0.151-241.531 126.972c-7.781 4.168-17.022 6.616-26.835 6.616s-19.054-2.448-27.146-6.768l0.311 0.151-241.531-126.972c-7.779-4.172-17.019-6.622-26.831-6.622-31.848 0-57.665 25.818-57.665 57.665 0 3.446 0.302 6.821 0.882 10.101l-0.051-0.347 46.117 268.934c0.529 2.932 0.831 6.307 0.831 9.753 0 16.177-6.662 30.798-17.392 41.27l-0.012 0.011-195.395 190.492c-10.748 10.482-17.414 25.106-17.414 41.287 0 28.92 21.294 52.866 49.059 57.015l0.316 0.039 270.050 39.243c19.161 2.857 35.023 14.797 43.267 31.222l0.151 0.332 120.768 244.681c9.621 19.2 29.145 32.149 51.695 32.149s42.074-12.949 51.544-31.817l0.151-0.332z" />
<glyph unicode="&#xe622;" glyph-name="slide-right" d="M487.26 384c0 3.876-1.541 7.598-4.28 10.332l-264.018 263.895c-2.643 2.641-6.293 4.275-10.324 4.275-8.066 0-14.605-6.539-14.605-14.605 0-4.034 1.636-7.686 4.28-10.33l253.676-253.568-253.676-253.568c-2.655-2.643-4.298-6.301-4.298-10.342 0-8.059 6.533-14.592 14.592-14.592 0.012 0 0.023 0 0.035 0 3.736 0 7.468 1.423 10.32 4.27l264.018 263.905c2.644 2.641 4.28 6.292 4.28 10.325 0 0.001 0 0.002 0 0.003zM825.692 394.332l-264.013 263.895c-2.643 2.641-6.293 4.275-10.324 4.275-8.066 0-14.605-6.539-14.605-14.605 0-4.034 1.636-7.686 4.28-10.33l253.681-253.568-253.681-253.568c-2.645-2.644-4.281-6.297-4.281-10.332 0-8.068 6.54-14.608 14.608-14.608 4.033 0 7.684 1.634 10.327 4.276l264.008 263.905c2.644 2.643 4.279 6.296 4.279 10.33s-1.635 7.686-4.279 10.33z" />
<glyph unicode="&#xe623;" glyph-name="file" d="M313.032 162.987h397.075v68.764h-397.075v-68.764zM313.032 25.589h397.075v68.7h-397.075v-68.7zM610.839 747.16h-430.164c-18.291 0-33.090-15.38-33.090-34.317v-824.719c0-19.001 14.799-34.383 33.090-34.383h661.793c18.29 0 33.090 15.381 33.090 34.383v618.491l-264.718 240.544zM643.928 625.79l131.131-119.174h-131.131v119.174zM809.376-77.494h-595.612v755.954h363.985v-206.163c0-19.001 14.8-34.383 33.090-34.383h198.539v-515.408zM313.032 300.451h397.075v68.764h-397.075v-68.764z" />
<glyph unicode="&#xe624;" glyph-name="pt" d="M1024 353.882v421.647c0 30.118-12.047 60.235-36.141 84.329s-54.212 36.141-84.329 36.141h-783.059c-30.118 0-60.235-12.047-84.329-36.141s-36.141-54.212-36.141-84.329v-783.059c0-30.118 12.047-60.235 36.141-84.329s54.212-36.141 84.329-36.141h783.059c66.259 0 120.471 54.212 120.471 120.471v361.412zM945.694-49.694c-12.047-12.047-24.094-18.071-42.165-18.071h-783.059c-36.141 0-60.235 24.094-60.235 60.235v783.059c0 36.141 24.094 60.235 60.235 60.235h783.059c36.141 0 60.235-24.094 60.235-60.235v-783.059c0-18.071-6.024-30.118-18.071-42.165zM301.176 414.118h180.706v180.706h-180.706v-180.706zM542.118 173.176h180.706v180.706h-180.706v-180.706z" />
<glyph unicode="&#xe625;" glyph-name="ak" d="M278.938 150.938c108.612 0 196.859 79.196 212.698 181.019h99.561v-126.714c0-18.102 13.576-31.678 31.678-31.678s31.678 13.576 31.678 31.678v126.714h99.561v-85.984c0-18.102 13.576-31.678 31.678-31.678s31.678 13.576 31.678 31.678v85.984l110.874 2.263c18.102 0 31.678 13.576 31.678 31.678s-13.576 31.678-31.678 31.678h-144.815c0 0 0 0 0 0s0 0 0 0h-162.917c0 0 0 0 0 0s0 0 0 0h-131.239c-13.576 104.086-104.086 185.545-210.435 183.282-58.831 0-113.137-22.627-151.604-61.094s-61.094-92.772-61.094-151.604c-2.263-119.925 92.772-214.96 212.698-217.223zM127.334 365.898c0 85.984 67.882 153.866 151.604 151.604 81.459 0 149.341-67.882 151.604-151.604 0-40.729-15.839-79.196-42.992-106.349s-65.62-42.992-106.349-42.992v0c-85.984 0-153.866 67.882-153.866 149.341z" />
<glyph unicode="&#xe626;" glyph-name="heart2" d="M907.98 719.37c-93.73 93.73-245.68 93.73-339.38 0l-56.6-56.57-56.58 56.55c-93.73 93.73-245.68 93.73-339.39 0-93.73-93.72-93.73-245.67 0-339.4l395.97-395.95 395.97 395.94c93.74 93.74 93.74 245.7 0.010 339.43zM738.27 323.39l-226.27-226.27-339.39 339.39c-62.48 62.48-62.48 163.79 0 226.29 62.5 62.48 163.79 62.48 226.27 0l113.12-113.14 113.14 113.14c62.48 62.48 163.79 62.48 226.27 0 62.48-62.5 62.48-163.79 0-226.29l-113.14-113.12z" />
<glyph unicode="&#xe627;" glyph-name="pg" d="M1024 353.882v421.647c0 30.118-12.047 60.235-36.141 84.329s-54.212 36.141-84.329 36.141h-783.059c-30.118 0-60.235-12.047-84.329-36.141s-36.141-54.212-36.141-84.329v-783.059c0-30.118 12.047-60.235 36.141-84.329s54.212-36.141 84.329-36.141h783.059c66.259 0 120.471 54.212 120.471 120.471v361.412zM963.765 775.529v-301.176h-301.176l-240.941 361.412h481.882c36.141 0 60.235-24.094 60.235-60.235zM120.471 835.765h240.941l240.941-361.412h-542.118v301.176c0 36.141 24.094 60.235 60.235 60.235zM60.235-7.529v421.647h542.118l-240.941-481.882h-240.941c-36.141 0-60.235 24.094-60.235 60.235zM945.694-49.694c-12.047-12.047-24.094-18.071-42.165-18.071h-481.882l240.941 481.882h301.176v-421.647c0-18.071-6.024-30.118-18.071-42.165z" />
<glyph unicode="&#xe628;" glyph-name="pl" d="M1024 353.882v421.647c0 30.118-12.047 60.235-36.141 84.329s-54.212 36.141-84.329 36.141h-783.059c-30.118 0-60.235-12.047-84.329-36.141s-36.141-54.212-36.141-84.329v-783.059c0-30.118 12.047-60.235 36.141-84.329s54.212-36.141 84.329-36.141h783.059c66.259 0 120.471 54.212 120.471 120.471v361.412zM945.694-49.694c-12.047-12.047-24.094-18.071-42.165-18.071h-783.059c-36.141 0-60.235 24.094-60.235 60.235v783.059c0 36.141 24.094 60.235 60.235 60.235h783.059c36.141 0 60.235-24.094 60.235-60.235v-783.059c0-18.071-6.024-30.118-18.071-42.165zM203.113 665.901l42.586 42.586 613.316-613.316-42.586-42.586zM516.819 664.877l42.586 42.586 315.211-315.151-42.586-42.586zM178.718 373.76l42.647 42.586 319.428-319.488-42.586-42.586z" />
<glyph unicode="&#xe629;" glyph-name="unconverted" d="M903.529-128h-783.059c-30.118 0-60.235 12.047-84.329 36.141s-36.141 54.212-36.141 84.329v783.059c0 30.118 12.047 60.235 36.141 84.329s54.212 36.141 84.329 36.141h783.059c30.118 0 60.235-12.047 84.329-36.141s36.141-54.212 36.141-84.329v-783.059c0-66.259-54.212-120.471-120.471-120.471zM60.235-7.529c0-36.141 24.094-60.235 60.235-60.235h795.106l-849.318 855.341c-6.024 0-6.024-6.024-6.024-12.047v-783.059zM963.765-7.529v783.059c0 36.141-24.094 60.235-60.235 60.235h-795.106l855.341-855.341v12.047z" />
<glyph unicode="&#xe62a;" glyph-name="sort-asc" horiz-adv-x="1268" d="M1218.901 574.771h-400.009c-23.53 0-39.217 15.687-39.217 39.217s15.687 39.217 39.217 39.217h407.852c23.53 0 39.217-15.687 39.217-39.217-7.843-23.53-23.53-39.217-47.060-39.217zM567.907 417.905h650.994c23.53 0 39.217-15.687 39.217-39.217s-15.687-39.217-39.217-39.217h-650.994c-15.687 0-39.217 15.687-39.217 39.217s23.53 39.217 39.217 39.217zM567.907 182.605h650.994c23.53 0 39.217-15.687 39.217-39.217s-15.687-39.217-39.217-39.217h-650.994c-15.687 0-39.217 15.687-39.217 39.217s23.53 39.217 39.217 39.217zM567.907-52.694h650.994c23.53 0 39.217-15.687 39.217-39.217s-15.687-39.217-39.217-39.217h-650.994c-15.687 0-39.217 15.687-39.217 39.217s23.53 39.217 39.217 39.217zM1218.901 810.070h-564.718c-23.53 0-39.217 15.687-39.217 39.217s15.687 39.217 39.217 39.217h564.718c23.53 0 39.217-15.687 39.217-39.217s-15.687-39.217-39.217-39.217zM677.713 504.181c-15.687-15.687-47.060-15.687-62.746 0l-250.986 243.143v-839.234c7.843-23.53-15.687-39.217-31.373-39.217-23.53 0-47.060 15.687-47.060 39.217v847.077l-211.769-211.769c-15.687-15.687-39.217-15.687-54.903 0s-15.687 39.217 0 54.903l282.359 274.516c0 7.843 15.687 15.687 23.53 15.687s7.843 0 15.687-7.843c7.843 0 15.687-7.843 15.687-7.843l313.732-305.889c31.373-15.687 31.373-47.060 7.843-62.746z" />
<glyph unicode="&#xe62b;" glyph-name="project-color" horiz-adv-x="1228" d="M1160.224 759.23h-1160.224v-818.982c0-40.949 27.299-68.248 68.248-68.248h1091.975c40.949 0 68.248 27.299 68.248 68.248v750.733c0 40.949-27.299 68.248-68.248 68.248zM1160.224 8.497c0-40.949-27.299-68.248-68.248-68.248h-955.479c-40.949 0-68.248 27.299-68.248 68.248v614.236c0 40.949 27.299 68.248 68.248 68.248h955.479c40.949 0 68.248-27.299 68.248-68.248v-614.236zM989.603 213.242h-477.739c-20.475 0-34.124-13.65-34.124-34.124s13.65-34.124 34.124-34.124h477.739c20.475 0 34.124 13.65 34.124 34.124s-13.65 34.124-34.124 34.124zM272.994 144.994h68.248v341.242h-68.248v-341.242zM989.603 349.739h-477.739c-20.475 0-34.124-13.65-34.124-34.124s13.65-34.124 34.124-34.124h477.739c20.475 0 34.124 13.65 34.124 34.124s-13.65 34.124-34.124 34.124zM989.603 486.236h-477.739c-20.475 0-34.124-13.65-34.124-34.124s13.65-34.124 34.124-34.124h477.739c20.475 0 34.124 13.65 34.124 34.124s-13.65 34.124-34.124 34.124zM621.061 759.23s-20.475 34.124-54.599 88.723c-40.949 54.599-88.723 47.774-88.723 47.774h-375.367c-102.373 0-102.373-102.373-102.373-102.373v-34.124h621.061z" />
<glyph unicode="&#xe62c;" glyph-name="group-color" horiz-adv-x="1358" d="M840.901 421.298c61.033 47.47 101.722 122.066 101.722 210.225 0 142.411-122.066 264.477-264.477 264.477s-264.477-122.066-264.477-264.477c0-81.377 40.689-162.755 101.722-210.225-162.755-67.815-278.040-223.788-278.040-413.669v-88.159c0-27.126 20.344-47.47 40.689-47.47h786.649c27.126 0 40.689 20.344 40.689 47.47v88.159c6.781 189.881-108.503 345.854-264.477 413.669zM678.146 807.841c94.94 0 176.318-81.377 176.318-176.318s-81.377-176.318-176.318-176.318-176.318 74.596-176.318 176.318c0 94.94 81.377 176.318 176.318 176.318zM1024-33.060h-691.709v47.47c0 196.662 155.974 352.636 345.854 352.636s345.854-155.974 345.854-352.636v-47.47zM318.728 407.735v40.689c0 6.781-6.781 6.781-6.781 13.563h-13.563c-47.47 20.344-74.596 67.815-74.596 122.066 0 61.033 40.689 115.285 101.722 128.848 13.563 6.781 27.126 33.907 27.126 54.252-6.781 27.126-33.907 40.689-54.252 33.907-101.722-27.126-169.536-115.285-169.536-217.007 0-54.252 20.344-108.503 54.252-149.192-108.503-54.252-183.099-176.318-183.099-311.947v-67.815c0-27.126 20.344-47.47 40.689-47.47 27.126 0 40.689 20.344 40.689 47.47v67.815c0 122.066 81.377 230.57 196.662 257.695 20.344 0 33.907 13.563 40.689 27.126zM1166.411 434.861c33.907 40.689 54.252 94.94 54.252 149.192 0 101.722-67.815 189.881-162.755 217.007-20.344 6.781-47.47-6.781-54.252-33.907-6.781-20.344 6.781-47.47 33.907-54.252 54.252-13.563 94.94-67.815 94.94-128.848 0-54.252-27.126-101.722-74.596-122.066-6.781 0-6.781-6.781-13.563-6.781 0 0-6.781-6.781-6.781-13.563v-40.689c6.781-13.563 20.344-20.344 33.907-27.126 115.285-27.126 196.662-135.629 196.662-257.695v-67.815c0-27.126 20.344-47.47 40.689-47.47s40.689 20.344 40.689 47.47v67.815c6.781 142.411-67.815 264.477-183.099 318.728zM678.146 896c149.192 0 264.477-122.066 264.477-264.477 0-149.192-122.066-264.477-264.477-264.477s-271.258 115.285-271.258 264.477c0 142.411 122.066 264.477 271.258 264.477z" />
<glyph unicode="&#xe62d;" glyph-name="data-color-active" d="M85.333 190.578s113.778-130.844 426.667-130.844 426.667 130.844 426.667 130.844v-170.667s-182.044-119.467-426.667-119.467-426.667 119.467-426.667 119.467v170.667zM512 896c-250.311 0-455.111-79.644-455.111-193.422v-631.467c0-113.778 204.8-193.422 455.111-193.422s455.111 79.644 455.111 193.422v631.467c0 113.778-204.8 193.422-455.111 193.422zM910.222 76.8c0-73.956-170.667-153.6-398.222-153.6s-398.222 73.956-398.222 153.6v79.644c73.956-62.578 221.867-108.089 398.222-108.089s324.267 45.511 398.222 108.089v-79.644zM910.222 253.156c0-73.956-170.667-153.6-398.222-153.6s-398.222 73.956-398.222 153.6v130.844c73.956-62.578 221.867-108.089 398.222-108.089s324.267 45.511 398.222 108.089v-130.844zM910.222 480.711c0-73.956-170.667-153.6-398.222-153.6s-398.222 73.956-398.222 153.6v136.533c73.956-62.578 221.867-108.089 398.222-108.089s324.267 45.511 398.222 108.089v-136.533zM512 560.356c-193.422 0-398.222 62.578-398.222 142.222s187.733 142.222 398.222 142.222 398.222-62.578 398.222-142.222-199.111-142.222-398.222-142.222z" />
<glyph unicode="&#xe62e;" glyph-name="develop-color-active" d="M984.178 896h-944.356c-22.756 0-39.822-17.067-39.822-39.822v-244.622h1024v244.622c0 22.756-17.067 39.822-39.822 39.822zM170.667 725.333h-56.889v56.889h56.889v-56.889zM284.444 725.333h-56.889v56.889h56.889v-56.889zM398.222 725.333h-56.889v56.889h56.889v-56.889zM967.111 611.556v-642.844c0-22.756-17.067-39.822-39.822-39.822h-830.578c-22.756 0-39.822 17.067-39.822 39.822v642.844h-56.889v-637.156c0-56.889 45.511-102.4 102.4-102.4h819.2c56.889 0 102.4 45.511 102.4 102.4v637.156h-56.889zM489.244 99.556h273.067c17.067 0 34.133 11.378 34.133 28.444s-17.067 28.444-34.133 28.444h-273.067c-17.067 0-34.133-11.378-34.133-28.444s17.067-28.444 34.133-28.444zM352.711 270.222l-130.844-130.844c-11.378-11.378-11.378-34.133 0-45.511 5.689-5.689 17.067-11.378 22.756-11.378s17.067 5.689 22.756 11.378l153.6 153.6c5.689 5.689 11.378 11.378 11.378 22.756 0 5.689-5.689 17.067-11.378 22.756l-153.6 153.6c-11.378 11.378-34.133 11.378-45.511 0s-11.378-34.133 0-45.511l130.844-130.844z" />
<glyph unicode="&#xe62f;" glyph-name="develop-color" d="M984.178 896h-944.356c-22.756 0-39.822-17.067-39.822-39.822v-244.622h1024v244.622c0 22.756-17.067 39.822-39.822 39.822zM170.667 725.333h-56.889v56.889h56.889v-56.889zM284.444 725.333h-56.889v56.889h56.889v-56.889zM398.222 725.333h-56.889v56.889h56.889v-56.889zM967.111 611.556v-642.844c0-22.756-17.067-39.822-39.822-39.822h-830.578c-22.756 0-39.822 17.067-39.822 39.822v642.844h-56.889v-637.156c0-56.889 45.511-102.4 102.4-102.4h819.2c56.889 0 102.4 45.511 102.4 102.4v637.156h-56.889zM489.244 99.556h273.067c17.067 0 34.133 11.378 34.133 28.444s-17.067 28.444-34.133 28.444h-273.067c-17.067 0-34.133-11.378-34.133-28.444s17.067-28.444 34.133-28.444zM352.711 270.222l-130.844-130.844c-11.378-11.378-11.378-34.133 0-45.511 5.689-5.689 17.067-11.378 22.756-11.378s17.067 5.689 22.756 11.378l153.6 153.6c5.689 5.689 11.378 11.378 11.378 22.756 0 5.689-5.689 17.067-11.378 22.756l-153.6 153.6c-11.378 11.378-34.133 11.378-45.511 0s-11.378-34.133 0-45.511l130.844-130.844z" />
<glyph unicode="&#xe630;" glyph-name="data-color" d="M85.333 190.578s113.778-130.844 426.667-130.844 426.667 130.844 426.667 130.844v-170.667s-182.044-119.467-426.667-119.467-426.667 119.467-426.667 119.467v170.667zM512 896c-250.311 0-455.111-79.644-455.111-193.422v-631.467c0-113.778 204.8-193.422 455.111-193.422s455.111 79.644 455.111 193.422v631.467c0 113.778-204.8 193.422-455.111 193.422zM910.222 76.8c0-73.956-170.667-153.6-398.222-153.6s-398.222 73.956-398.222 153.6v79.644c73.956-62.578 221.867-108.089 398.222-108.089s324.267 45.511 398.222 108.089v-79.644zM910.222 253.156c0-73.956-170.667-153.6-398.222-153.6s-398.222 73.956-398.222 153.6v130.844c73.956-62.578 221.867-108.089 398.222-108.089s324.267 45.511 398.222 108.089v-130.844zM910.222 480.711c0-73.956-170.667-153.6-398.222-153.6s-398.222 73.956-398.222 153.6v136.533c73.956-62.578 221.867-108.089 398.222-108.089s324.267 45.511 398.222 108.089v-136.533zM512 560.356c-193.422 0-398.222 62.578-398.222 142.222s187.733 142.222 398.222 142.222 398.222-62.578 398.222-142.222-199.111-142.222-398.222-142.222z" />
<glyph unicode="&#xe631;" glyph-name="contact-color" horiz-adv-x="1029" d="M170.667 384v113.778c0 187.733 153.6 341.333 341.333 341.333s341.333-153.6 341.333-341.333v-113.778c39.822-17.067 91.022-5.689 125.156 28.444s39.822 79.644 22.756 125.156c-17.067 39.822-56.889 68.267-102.4 68.267-45.511 164.978-199.111 290.133-386.844 290.133-182.044 0-335.644-125.156-381.156-290.133-51.2-22.756-79.644-73.956-73.956-130.844 11.378-51.2 56.889-91.022 113.778-91.022M512 298.667c-108.089 0-199.111 91.022-199.111 199.111s91.022 199.111 199.111 199.111 199.111-91.022 199.111-199.111-85.333-199.111-199.111-199.111M512 753.778c-142.222 0-256-113.778-256-256s113.778-256 256-256 256 113.778 256 256-113.778 256-256 256M221.867 224.711c79.644-79.644 182.044-125.156 290.133-125.156s216.178 45.511 290.133 125.156c91.022-73.956 147.911-182.044 164.978-295.822h-904.533c11.378 113.778 73.956 221.867 159.289 295.822M790.756 298.667c-62.578-91.022-164.978-142.222-278.756-142.222s-216.178 51.2-278.756 142.222c-147.911-91.022-233.244-256-233.244-426.667h1029.689c0 170.667-91.022 335.644-238.933 426.667" />
<glyph unicode="&#xe632;" glyph-name="check" d="M925.65 686.196c0 0-169.665-105.81-307.198-235.769-139.478-131.803-246.617-287.958-246.617-287.958l-210.801 177.237-86.265-82.375 345.059-343.525c0 0 129.14 223.798 277.828 417.509 114.816 149.505 257.873 280.284 257.873 280.284l-29.88 74.598z" />
<glyph unicode="&#xe633;" glyph-name="close" d="M554.172 383.588l223.239 223.241c10.041 10.037 8.878 27.468-2.596 38.938-11.468 11.468-28.894 12.633-38.937 2.594l-223.238-223.241-223.238 223.241c-10.041 10.039-27.469 8.875-38.938-2.594-11.472-11.47-12.637-28.902-2.595-38.938l223.239-223.241-223.235-223.238c-10.039-10.034-8.88-27.47 2.591-38.938 11.465-11.468 28.904-12.629 38.938-2.595l223.238 223.239 223.24-223.239c10.033-10.033 27.472-8.873 38.938 2.595 11.473 11.468 12.63 28.903 2.591 38.938l-223.236 223.238z" />
<glyph unicode="&#xe634;" glyph-name="app-manage-color" d="M268.19 505.905l243.81-58.514 243.81 58.514-175.543-195.048-68.267-195.048-68.267 195.048-175.543 195.048zM73.143 642.438v-512l438.857-258.438 438.857 253.562v516.876l-438.857 253.562-438.857-253.562zM902.095 169.448l-390.095-238.933-390.095 238.933v429.105l390.095 238.933 390.095-238.933v-429.105z" />
<glyph unicode="&#xe635;" glyph-name="resource-color" horiz-adv-x="1090" d="M903.529-128h-722.824v60.235h180.706v120.471h361.412v-120.471h180.706v-60.235zM975.812 896h-867.388c-60.235 0-108.424-48.188-108.424-108.424v-566.212c0-60.235 48.188-108.424 108.424-108.424h867.388c60.235 0 108.424 48.188 108.424 108.424v566.212c6.024 60.235-48.188 108.424-108.424 108.424zM1024 594.824v-379.482c0-24.094-18.071-42.165-42.165-42.165h-879.435c-24.094 0-42.165 18.071-42.165 42.165v578.259c0 24.094 18.071 42.165 42.165 42.165h885.459c18.071 0 36.141-18.071 36.141-42.165v-198.776zM722.824 655.059h60.235v-421.647h-60.235zM602.353 444.235h60.235v-210.824h-60.235zM481.882 546.635h60.235v-313.224h-60.235zM361.412 655.059h60.235v-421.647h-60.235zM240.941 444.235h60.235v-210.824h-60.235z" />
<glyph unicode="&#xe636;" glyph-name="resource-color-active" horiz-adv-x="1090" d="M903.529-128h-722.824v60.235h180.706v120.471h361.412v-120.471h180.706v-60.235zM975.812 896h-867.388c-60.235 0-108.424-48.188-108.424-108.424v-566.212c0-60.235 48.188-108.424 108.424-108.424h867.388c60.235 0 108.424 48.188 108.424 108.424v566.212c6.024 60.235-48.188 108.424-108.424 108.424zM1024 594.824v-379.482c0-24.094-18.071-42.165-42.165-42.165h-879.435c-24.094 0-42.165 18.071-42.165 42.165v578.259c0 24.094 18.071 42.165 42.165 42.165h885.459c18.071 0 36.141-18.071 36.141-42.165v-198.776zM722.824 655.059h60.235v-421.647h-60.235zM602.353 444.235h60.235v-210.824h-60.235zM481.882 546.635h60.235v-313.224h-60.235zM361.412 655.059h60.235v-421.647h-60.235zM240.941 444.235h60.235v-210.824h-60.235z" />
<glyph unicode="&#xe637;" glyph-name="app-manage-color-active" d="M268.19 505.905l243.81-58.514 243.81 58.514-175.543-195.048-68.267-195.048-68.267 195.048-175.543 195.048zM73.143 642.438v-512l438.857-258.438 438.857 253.562v516.876l-438.857 253.562-438.857-253.562zM902.095 169.448l-390.095-238.933-390.095 238.933v429.105l390.095 238.933 390.095-238.933v-429.105z" />
<glyph unicode="&#xe638;" glyph-name="plus" d="M798.094 416.954h-256.040v256.040c0 17.677-14.328 32.005-32.005 32.005s-32.005-14.328-32.005-32.005v-256.039h-256.039c-17.677 0-32.005-14.331-32.005-32.002 0-17.68 14.328-32.011 32.005-32.011h256.039v-256.039c0-17.67 14.328-32.002 32.005-32.002s32.005 14.331 32.005 32.002v256.038h256.039c17.677 0 32.005 14.331 32.005 32.011 0.001 17.67-14.327 32.002-32.004 32.002z" />
<glyph unicode="&#xe639;" glyph-name="group-color-active" horiz-adv-x="1358" d="M840.901 421.298c61.033 47.47 101.722 122.066 101.722 210.225 0 142.411-122.066 264.477-264.477 264.477s-264.477-122.066-264.477-264.477c0-81.377 40.689-162.755 101.722-210.225-162.755-67.815-278.040-223.788-278.040-413.669v-88.159c0-27.126 20.344-47.47 40.689-47.47h786.649c27.126 0 40.689 20.344 40.689 47.47v88.159c6.781 189.881-108.503 345.854-264.477 413.669zM678.146 807.841c94.94 0 176.318-81.377 176.318-176.318s-81.377-176.318-176.318-176.318-176.318 74.596-176.318 176.318c0 94.94 81.377 176.318 176.318 176.318zM1024-33.060h-691.709v47.47c0 196.662 155.974 352.636 345.854 352.636s345.854-155.974 345.854-352.636v-47.47zM318.728 407.735v40.689c0 6.781-6.781 6.781-6.781 13.563h-13.563c-47.47 20.344-74.596 67.815-74.596 122.066 0 61.033 40.689 115.285 101.722 128.848 13.563 6.781 27.126 33.907 27.126 54.252-6.781 27.126-33.907 40.689-54.252 33.907-101.722-27.126-169.536-115.285-169.536-217.007 0-54.252 20.344-108.503 54.252-149.192-108.503-54.252-183.099-176.318-183.099-311.947v-67.815c0-27.126 20.344-47.47 40.689-47.47 27.126 0 40.689 20.344 40.689 47.47v67.815c0 122.066 81.377 230.57 196.662 257.695 20.344 0 33.907 13.563 40.689 27.126zM1166.411 434.861c33.907 40.689 54.252 94.94 54.252 149.192 0 101.722-67.815 189.881-162.755 217.007-20.344 6.781-47.47-6.781-54.252-33.907-6.781-20.344 6.781-47.47 33.907-54.252 54.252-13.563 94.94-67.815 94.94-128.848 0-54.252-27.126-101.722-74.596-122.066-6.781 0-6.781-6.781-13.563-6.781 0 0-6.781-6.781-6.781-13.563v-40.689c6.781-13.563 20.344-20.344 33.907-27.126 115.285-27.126 196.662-135.629 196.662-257.695v-67.815c0-27.126 20.344-47.47 40.689-47.47s40.689 20.344 40.689 47.47v67.815c6.781 142.411-67.815 264.477-183.099 318.728zM678.146 896c149.192 0 264.477-122.066 264.477-264.477 0-149.192-122.066-264.477-264.477-264.477s-271.258 115.285-271.258 264.477c0 142.411 122.066 264.477 271.258 264.477z" />
<glyph unicode="&#xe63a;" glyph-name="project-color-active" horiz-adv-x="1228" d="M1160.224 759.23h-1160.224v-818.982c0-40.949 27.299-68.248 68.248-68.248h1091.975c40.949 0 68.248 27.299 68.248 68.248v750.733c0 40.949-27.299 68.248-68.248 68.248zM1160.224 8.497c0-40.949-27.299-68.248-68.248-68.248h-955.479c-40.949 0-68.248 27.299-68.248 68.248v614.236c0 40.949 27.299 68.248 68.248 68.248h955.479c40.949 0 68.248-27.299 68.248-68.248v-614.236zM989.603 213.242h-477.739c-20.475 0-34.124-13.65-34.124-34.124s13.65-34.124 34.124-34.124h477.739c20.475 0 34.124 13.65 34.124 34.124s-13.65 34.124-34.124 34.124zM272.994 144.994h68.248v341.242h-68.248v-341.242zM989.603 349.739h-477.739c-20.475 0-34.124-13.65-34.124-34.124s13.65-34.124 34.124-34.124h477.739c20.475 0 34.124 13.65 34.124 34.124s-13.65 34.124-34.124 34.124zM989.603 486.236h-477.739c-20.475 0-34.124-13.65-34.124-34.124s13.65-34.124 34.124-34.124h477.739c20.475 0 34.124 13.65 34.124 34.124s-13.65 34.124-34.124 34.124zM621.061 759.23s-20.475 34.124-54.599 88.723c-40.949 54.599-88.723 47.774-88.723 47.774h-375.367c-102.373 0-102.373-102.373-102.373-102.373v-34.124h621.061z" />
<glyph unicode="&#xe63b;" glyph-name="dataviz3d" d="M476.591 107.837c6.211-7.549 15.554-12.326 26.012-12.326 0.111 0 0.222 0.001 0.334 0.002h-0.017c0.104-0.001 0.228-0.002 0.351-0.002 10.619 0 20.126 4.766 26.496 12.276l0.041 0.050 28.009 31.37c106.995 121.56 256.004 280.092 256.004 430.781 0.357 5.557 0.56 12.048 0.56 18.588 0 170.469-138.192 308.661-308.661 308.661s-308.661-138.192-308.661-308.661c0-6.539 0.203-13.031 0.604-19.47l-0.044 0.882c-1.12-147.328 140.046-305.86 244.8-424.059zM506.281 810.867c125.712-1.88 226.899-104.229 226.899-230.211 0-1.19-0.009-2.379-0.027-3.565l0.002 0.179c0-160.212-160.773-291.855-224.073-380.364-66.662 84.588-224.073 221.272-224.073 380.364-0.017 1.051-0.027 2.292-0.027 3.535 0 124.013 98.048 225.125 220.853 230.048l0.447 0.014zM635.123 594.636c0.178 2.54 0.28 5.503 0.28 8.491 0 71.158-57.685 128.842-128.842 128.842s-128.842-57.685-128.842-128.842c0-2.988 0.102-5.951 0.302-8.888l-0.022 0.397c-0.178-2.54-0.28-5.503-0.28-8.491 0-71.158 57.685-128.842 128.842-128.842s128.842 57.685 128.842 128.842c0 2.988-0.102 5.951-0.302 8.888l0.022-0.397zM506.281 531.896c-30.865 4.27-54.375 30.48-54.375 62.18s23.511 57.91 54.046 62.143l0.329 0.037c34.651 0 62.74-28.090 62.74-62.74s-28.090-62.74-62.74-62.74v0zM868.719 432.183v-64.981l46.495-24.648v-369.721l-256.004 134.444-315.383-168.055-256.004 134.444v319.304l52.657-28.569v63.861l-112.037 59.94v-448.146l321.545-168.055 315.383 168.055 315.383-168.055v504.165z" />
<glyph unicode="&#xe63c;" glyph-name="up-down" d="M816.5 270c-39 0-576 0-609 0-30 0-48-19.5-33-34.5 22.5-24 291-304.5 304.5-318 16.5-18 52.5-15 67.5 0 10.5 10.5 286.5 301.5 303 318 15 16.5-4.5 33-33 34.5zM207.5 498c33 0 570 0 609 0 28.5 0 48 18 33 34.5-16.5 16.5-292.5 307.5-304.5 319.5-13.5 15-49.5 16.5-67.5 0-12-15-280.5-295.5-303-319.5-15-15 3-34.5 33-34.5z" />
<glyph unicode="&#xe63d;" glyph-name="point3" d="M393.846 777.846c0-65.255 52.899-118.154 118.154-118.154s118.154 52.899 118.154 118.154c0 0 0 0 0 0s0 0 0 0c0 65.255-52.899 118.154-118.154 118.154s-118.154-52.899-118.154-118.154c0 0 0 0 0 0zM393.846 384c0-65.255 52.899-118.154 118.154-118.154s118.154 52.899 118.154 118.154c0 0 0 0 0 0s0 0 0 0c0 65.255-52.899 118.154-118.154 118.154s-118.154-52.899-118.154-118.154c0 0 0 0 0 0zM393.846-9.846c0-65.255 52.899-118.154 118.154-118.154s118.154 52.899 118.154 118.154c0 0 0 0 0 0s0 0 0 0c0 65.255-52.899 118.154-118.154 118.154s-118.154-52.899-118.154-118.154c0 0 0 0 0 0z" />
<glyph unicode="&#xe63e;" glyph-name="caret-down" d="M217.6 576h582.4c19.2 0 32-25.6 19.2-38.4l-294.4-339.2c-6.4-12.8-25.6-12.8-38.4 0l-281.6 339.2c-12.8 19.2-6.4 38.4 12.8 38.4z" />
<glyph unicode="&#xe63f;" glyph-name="field" d="M321.12 716.804l-154.795-0.359c-21.164 0-38.326-17.522-38.326-39.135 0-21.61 17.161-39.13 38.326-39.13l154.795 0.359c21.167 0 38.326 17.52 38.326 39.135 0 21.61-17.159 39.13-38.326 39.13zM589.396 716.804l-154.792-0.359c-21.167 0-38.326-17.522-38.326-39.135 0-21.61 17.159-39.13 38.326-39.13l154.792 0.359c21.167 0 38.326 17.52 38.326 39.135 0 21.61-17.159 39.13-38.326 39.13zM702.882 638.181l154.792 0.359c21.167 0 38.326 17.52 38.326 39.135 0 21.61-17.159 39.13-38.326 39.13l-154.792-0.359c-21.167 0-38.326-17.522-38.326-39.135 0.001-21.61 17.159-39.13 38.326-39.13zM321.12 521.141l-154.795-0.359c-21.164 0-38.326-17.52-38.326-39.132s17.161-39.13 38.326-39.13l154.795 0.356c21.167 0 38.326 17.522 38.326 39.135s-17.159 39.13-38.326 39.13zM589.396 521.141l-154.792-0.359c-21.167 0-38.326-17.52-38.326-39.132s17.159-39.13 38.326-39.13l154.792 0.356c21.167 0 38.326 17.522 38.326 39.135s-17.159 39.13-38.326 39.13zM857.674 521.141l-154.792-0.359c-21.167 0-38.326-17.52-38.326-39.132s17.159-39.13 38.326-39.13l154.792 0.356c21.167 0 38.326 17.522 38.326 39.135s-17.159 39.13-38.326 39.13zM321.12 325.48l-154.795-0.359c-21.164 0-38.326-17.52-38.326-39.132s17.161-39.132 38.326-39.132l154.795 0.359c21.167 0 38.326 17.52 38.326 39.132s-17.159 39.132-38.326 39.132zM589.396 325.48l-154.792-0.359c-21.167 0-38.326-17.52-38.326-39.132s17.159-39.132 38.326-39.132l154.792 0.359c21.167 0 38.326 17.52 38.326 39.132s-17.159 39.132-38.326 39.132zM857.674 325.48l-154.792-0.359c-21.167 0-38.326-17.52-38.326-39.132s17.159-39.132 38.326-39.132l154.792 0.359c21.167 0 38.326 17.52 38.326 39.132s-17.159 39.132-38.326 39.132zM589.396 129.819l-154.792-0.359c-21.167 0-38.326-17.522-38.326-39.132 0-21.615 17.159-39.132 38.326-39.132l154.792 0.356c21.167 0 38.326 17.52 38.326 39.132s-17.159 39.135-38.326 39.135z" />
<glyph unicode="&#xe640;" glyph-name="doc" d="M373.33 345.777h179.19v-35.838h-179.19v35.838zM373.33 219.29h250.867v-35.839h-250.867v35.839zM373.33 471.212h250.867v-35.838h-250.867v35.838zM809.118-62.062h-590.764c-30.12 0-53.783 25.36-53.783 55.48l-0.84 787.11c0 30.14 23.66 53.781 53.783 53.781h416.814c13.492-0.004 25.841-4.895 35.374-12.998l175.088-178.591c11.069-9.269 17.273-25.335 17.273-41.42l0.844-609.58c-0.002-30.147-23.668-53.782-53.789-53.782zM217.513 798.46c-10.347 0-18.767-8.425-18.767-18.769l0.84-787.113c0-10.364 8.42-18.785 18.767-18.785h590.764c10.35 0 18.768 8.421 18.768 18.768l-0.837 609.577c0 0.008 0 0.018 0 0.027 0 5.734-2.572 10.867-6.624 14.309l-175.2 178.682c-2.161 1.728-6.459 3.302-10.897 3.302l-416.814 0.001zM839.226 596.646h-215.029v215.031h35.84v-179.194h179.189v-35.836z" />
<glyph unicode="&#xe641;" glyph-name="car" horiz-adv-x="1256" d="M492.676 885.793c98.271 13.84 179.431 13.345 269.28 0 61.472-13.015 123.771-23.189 184.22-39.969 44.759-12.42 77.097-42.777 93.085-89.154 25.402-73.266 52.026-146.102 80.037-218.376 4.757-12.090 20.249-29.895 28.936-28.937 58.897 6.64 86.61-26.095 104.613-74.52 4.328-14.832 1.916-29.696 0-39.507-24.542-6.805-49.085-13.543-71.646-19.753 3.17-25.501 8.918-51.398 9.050-77.296 0.991-118.123 1.718-236.28-0.66-354.403-0.397-21.074-12.586-53.875-21.075-59.194-8.027-13.807-186.797-13.146-200.704-3.567-46.443 30.158-17.87 80.764-32.768 121.823h-607.364c-11.76-43.438-18.762-116.373-32.933-121.823-30.918-11.892-196.641-12.321-205.89 0-12.552 8.886-21.075 44.693-22.726 67.683-3.436 49.747-1.454 99.89-0.958 149.867 0.925 92.788 2.312 185.576 3.534 278.99-17.408 4.56-42.182 11.133-66.956 17.706-1.355 8.886-3.138 19.753 0 31.612 17.21 51.134 42.38 90.607 106.892 82.382 7.796-0.99 22.165 15.658 26.426 26.823 22.032 57.74 45.684 115.381 61.44 174.971 26.393 100.187 98.766 140.487 191.158 158.259 34.783 6.64 70.028 11 105.010 16.384zM215.337 490.133c279.156-57.774 546.717-59.128 821.182 0-23.056 71.019-46.179 134.11-63.587 198.656-14.997 55.428-50.87 82.712-104.283 85.090-130.18 5.847-260.393 10.505-390.606 11.496-42.876 0.33-86.38-9.81-128.463-19.852-17.342-4.162-40.167-17.375-46.080-32.24-31.050-77.593-57.542-157.101-88.163-243.15zM268.916 188.218c0.099 1.52-0.066-1.487 0 0 22.33 0 45.815 0.793 67.055 5.747 15.426 3.6 34.981 16.12 39.87 29.366 3.435 9.414-11.363 33.56-23.618 39.21-51.002 23.65-103.391 45.088-156.837 62.629-26.624 8.753-56.287 7.101-64.876-30.853-12.519-55.494-0.825-86.445 40.696-95.1 31.942-6.639 65.074-7.564 97.71-11zM992.256 188.383c28.837 3.468 64.578 4.757 98.8 12.717 46.773 10.736 36.897 50.21 35.806 83.638-0.924 28.606-18.696 50.11-44.461 42.083-64.413-19.984-128.363-43.536-188.978-72.935-27.846-13.543-17.87-50.87 13.808-57.807 25.369-5.516 52.092-4.987 85.025-7.696zM992.256 188.383" />
<glyph unicode="&#xe642;" glyph-name="layer" d="M512 292.978l-455.111 261.689 455.111 261.689 455.111-261.69-455.111-261.687zM170.667 554.667l341.333-193.423 341.333 193.423-341.333 193.422-341.333-193.422zM910.222 440.889l-56.889-34.133-341.333-193.423-398.222 227.557-56.89-34.133 455.112-261.691 455.111 261.69zM910.222 281.6l-56.889-34.133-341.333-193.423v-5.688l-398.222 227.554-56.89-28.444 455.112-261.689 455.111 261.69z" />
<glyph unicode="&#xe656;" glyph-name="upload" d="M1022.955 339.752c0-100.192-81.517-181.698-181.719-181.698h-185.638c-11.297 0-20.466 9.169-20.466 20.466 0 11.308 9.169 20.466 20.466 20.466h185.638c77.628 0 140.786 63.148 140.786 140.766 0 77.423-62.841 140.449-140.203 140.766-0.42-0.031-0.829-0.051-1.248-0.061-5.935-0.153-11.666 2.302-15.667 6.703-4.001 4.41-5.884 10.346-5.157 16.25 1.33 10.806 1.944 19.76 1.944 28.192 0 60.764-23.659 117.875-66.617 160.833-42.969 42.958-100.090 66.617-160.843 66.617-47.369 0-92.742-14.449-131.208-41.782-37.617-26.739-65.952-63.701-81.926-106.884-2.425-6.549-8.012-11.4-14.828-12.894-6.815-1.484-13.927 0.604-18.86 5.536-19.289 19.34-44.944 29.983-72.245 29.983-56.323 0-102.146-45.813-102.146-102.126 0-0.317 0.041-0.982 0.092-1.627 0.061-0.921 0.123-1.832 0.153-2.763 0.338-9.466-5.864-17.928-15.002-20.456-32.357-8.944-61.542-28.55-82.182-55.218-21.305-27.517-32.572-60.508-32.572-95.413 0-86.244 70.189-156.423 156.443-156.423h169.981c11.297 0 20.466-9.159 20.466-20.466 0-11.297-9.169-20.466-20.466-20.466h-169.981c-108.829 0-197.375 88.536-197.375 197.355 0 44.053 14.224 85.712 41.127 120.474 22.809 29.451 53.898 52.086 88.71 64.816 5.065 74.323 67.149 133.245 142.751 133.245 28.387 0 55.504-8.217 78.651-23.526 19.658 39.868 48.842 74.169 85.497 100.212 45.435 32.296 99.005 49.354 154.918 49.354 71.693 0 139.088-27.916 189.782-78.6 50.695-50.695 78.61-118.090 78.61-189.782 0-3.704-0.102-7.47-0.297-11.369 90.307-10.479 160.628-87.421 160.628-180.481zM629.259 306.894c-3.991-3.991-9.23-5.997-14.47-5.997s-10.479 2.006-14.47 5.997l-67.088 67.078v-358.689c0-11.308-9.159-20.466-20.466-20.466s-20.466 9.159-20.466 20.466v358.689l-67.088-67.078c-7.992-7.992-20.947-7.992-28.939 0s-7.992 20.957 0 28.949l102.024 102.013c7.992 7.992 20.947 7.992 28.939 0l102.024-102.013c7.992-7.992 7.992-20.957 0-28.949z" />
<glyph unicode="&#xe657;" glyph-name="success-fill" d="M512 830.016c-245.92 0-446.016-200.096-446.016-446.016 0-245.952 200.064-446.016 446.016-446.016s446.016 200.064 446.016 446.016c0 245.92-200.064 446.016-446.016 446.016zM727.232 457.568l-256.224-259.008c-0.064-0.064-0.192-0.096-0.256-0.192-0.096-0.064-0.096-0.192-0.192-0.256-2.048-1.984-4.576-3.2-6.944-4.544-1.184-0.672-2.144-1.696-3.392-2.176-3.84-1.536-7.904-2.336-11.968-2.336-4.096 0-8.224 0.8-12.096 2.4-1.28 0.544-2.304 1.632-3.52 2.304-2.368 1.344-4.832 2.528-6.88 4.544-0.064 0.064-0.096 0.192-0.16 0.256-0.064 0.096-0.192 0.096-0.256 0.192l-126.016 129.504c-12.32 12.672-12.032 32.928 0.64 45.248 12.672 12.288 32.896 12.064 45.248-0.64l103.264-106.112 233.28 235.84c12.416 12.576 32.704 12.704 45.248 0.256 12.512-12.448 12.64-32.704 0.224-45.28z" />
<glyph unicode="&#xe658;" glyph-name="success-o" d="M512-64c-247.040 0-448 200.96-448 448s200.96 448 448 448 448-200.96 448-448-200.96-448-448-448zM512 767.712c-211.584 0-383.712-172.128-383.712-383.712 0-211.552 172.128-383.712 383.712-383.712 211.552 0 383.712 172.16 383.712 383.712 0 211.584-172.16 383.712-383.712 383.712zM726.976 502.816c-12.544 12.448-32.832 12.32-45.248-0.256l-233.28-235.84-103.264 106.112c-12.352 12.704-32.608 12.928-45.248 0.64-12.672-12.32-12.96-32.608-0.64-45.248l126.016-129.504c0.064-0.096 0.192-0.096 0.256-0.192 0.064-0.064 0.096-0.192 0.16-0.256 2.016-1.984 4.512-3.2 6.88-4.544 1.248-0.672 2.24-1.792 3.52-2.304 3.872-1.6 8-2.4 12.096-2.4 4.064 0 8.128 0.8 11.968 2.336 1.248 0.512 2.208 1.536 3.392 2.176 2.4 1.344 4.896 2.528 6.944 4.544 0.064 0.064 0.096 0.192 0.192 0.256 0.064 0.096 0.16 0.128 0.256 0.192l256.224 259.008c12.448 12.608 12.32 32.864-0.224 45.28z" />
<glyph unicode="&#xe659;" glyph-name="error-fill" d="M512 832c-247.008 0-448-200.96-448-448s200.96-448 448-448c247.008 0 448 200.96 448 448s-200.96 448-448 448zM694.752 246.016c12.48-12.544 12.448-32.768-0.064-45.248-6.24-6.208-14.4-9.344-22.592-9.344-8.224 0-16.416 3.136-22.656 9.408l-137.6 138.016-138.048-136.576c-6.24-6.144-14.368-9.248-22.496-9.248-8.256 0-16.48 3.168-22.752 9.504-12.416 12.576-12.32 32.8 0.256 45.248l137.888 136.384-137.376 137.824c-12.48 12.512-12.448 32.768 0.064 45.248 12.512 12.512 32.736 12.448 45.248-0.064l137.568-137.984 138.048 136.576c12.544 12.448 32.832 12.32 45.248-0.256 12.448-12.576 12.32-32.832-0.256-45.248l-137.888-136.384 137.408-137.856z" />
<glyph unicode="&#xe65a;" glyph-name="error-o" d="M512-64c-247.040 0-448 200.96-448 448s200.96 448 448 448 448-200.96 448-448-200.96-448-448-448zM512 767.712c-211.584 0-383.712-172.128-383.712-383.712 0-211.552 172.128-383.712 383.712-383.712 211.552 0 383.712 172.16 383.712 383.712 0 211.584-172.16 383.712-383.712 383.712zM557.056 382.624l138.368 136.864c12.576 12.416 12.672 32.672 0.256 45.248s-32.704 12.672-45.248 0.256l-138.56-137.024-136.448 136.864c-12.512 12.512-32.736 12.576-45.248 0.064-12.512-12.48-12.544-32.736-0.064-45.248l136.256-136.672-137.376-135.904c-12.576-12.448-12.672-32.672-0.256-45.248 6.272-6.336 14.496-9.504 22.752-9.504 8.128 0 16.256 3.104 22.496 9.248l137.568 136.064 138.688-139.136c6.24-6.272 14.432-9.408 22.656-9.408 8.192 0 16.352 3.136 22.592 9.344 12.512 12.48 12.544 32.704 0.064 45.248l-138.496 138.944z" />
<glyph unicode="&#xe65b;" glyph-name="flip-down" d="M921.6 332.8c-9.6 9.6-25.6 9.6-35.2 0l-342.4-332.8v822.4c0 12.8-9.6 22.4-25.6 22.4s-25.6-9.6-25.6-22.4v-822.4l-342.4 339.2c-9.6 9.6-25.6 9.6-35.2 0s-9.6-22.4 0-32l384-377.6c6.4-6.4 12.8-6.4 19.2-6.4 0 0 0 0 0 0 3.2 0 3.2 0 6.4 0 0 0 0 0 3.2 0s6.4 3.2 9.6 6.4l380.8 371.2c12.8 6.4 12.8 22.4 3.2 32z" />
<glyph unicode="&#xe65d;" glyph-name="arrow-up" d="M966.4 227.2l-435.2 432c-9.6 9.6-25.6 9.6-35.2 0l-441.6-432c-9.6-9.6-9.6-25.6 0-35.2s25.6-9.6 35.2 0l425.6 416 416-416c9.6-9.6 25.6-9.6 35.2 0s9.6 25.6 0 35.2z" />
<glyph unicode="&#xe65e;" glyph-name="arrow-down" d="M966.4 572.8c-9.6 9.6-25.6 9.6-35.2 0l-416-416-425.6 416c-9.6 9.6-25.6 9.6-35.2 0s-9.6-25.6 0-35.2l441.6-432c9.6-9.6 25.6-9.6 35.2 0l435.2 432c9.6 12.8 9.6 25.6 0 35.2z" />
<glyph unicode="&#xe663;" glyph-name="loading" d="M512.067-89.766c-102.571 0-201.967 32.87-285.525 95.436-102.127 76.493-168.38 188.245-186.505 314.573-18.125 126.362 14.029 252.212 90.523 354.372 157.968 210.943 458.070 253.952 668.945 96.085 88.405-66.218 151.484-161.69 177.664-268.8 4.471-18.33-6.758-36.796-25.054-41.267-18.295-4.335-36.796 6.724-41.267 25.054-22.391 91.785-76.46 173.602-152.269 230.365-180.668 135.339-437.931 98.438-573.372-82.364-65.57-87.552-93.116-195.414-77.551-303.718 15.531-108.305 72.329-204.049 159.879-269.585 180.838-135.51 438.067-98.543 573.44 82.261 35.43 47.343 59.733 100.386 72.158 157.697 4.028 18.433 22.289 30.14 40.585 26.147 18.433-3.994 30.14-22.187 26.145-40.585-14.575-66.97-42.906-128.889-84.242-184.182-76.493-102.127-188.245-168.414-314.642-186.505-23.039-3.345-46.046-4.983-68.915-4.983z" />
<glyph unicode="&#xe665;" glyph-name="table" d="M913.988 722.32h-803.938c-25.671 0-46.676-21.007-46.676-46.679v-665.897c0-25.651 20.987-46.638 46.637-46.638h803.939c25.671 0 46.676 21.004 46.676 46.676v665.898c0 25.651-20.988 46.64-46.638 46.64zM339.796-0.142c0-12.016-9.34-21.353-21.305-21.353h-213.627c-11.965 0-21.303 9.337-21.303 21.353v128.119c0 12.014 9.338 21.353 21.303 21.353h213.627c11.965 0 21.305-9.34 21.305-21.353v-128.118zM339.796 224.853c0-12.015-9.34-21.353-21.305-21.353h-213.627c-11.965 0-21.303 9.338-21.303 21.353v128.118c0 12.013 9.338 21.354 21.303 21.354h213.627c11.965 0 21.305-9.34 21.305-21.354v-128.117zM339.796 448.285c0-12.016-9.34-21.353-21.305-21.353h-213.627c-11.965 0-21.303 9.337-21.303 21.353v128.119c0 12.013 9.338 21.353 21.303 21.353h213.627c11.965 0 21.305-9.34 21.305-21.353v-128.118zM639.269-0.14c0-12.016-9.34-21.353-21.306-21.353h-213.626c-11.966 0-21.305 9.337-21.305 21.353v128.117c0 12.014 9.34 21.353 21.305 21.353h213.626c11.966 0 21.306-9.34 21.306-21.353v-128.118zM639.269 224.855c0-12.015-9.34-21.353-21.306-21.353h-213.626c-11.966 0-21.305 9.338-21.305 21.353v128.116c0 12.013 9.34 21.354 21.305 21.354h213.626c11.966 0 21.306-9.34 21.306-21.354v-128.117zM639.269 448.287c0-12.016-9.34-21.353-21.306-21.353h-213.626c-11.966 0-21.305 9.337-21.305 21.353v128.117c0 12.013 9.34 21.353 21.305 21.353h213.626c11.966 0 21.306-9.34 21.306-21.353v-128.118zM941.864-0.14c0-12.016-9.34-21.353-21.304-21.353h-213.627c-11.966 0-21.304 9.337-21.304 21.353v128.117c0 12.014 9.338 21.353 21.304 21.353h213.626c11.966 0 21.304-9.34 21.304-21.353v-128.118zM941.864 224.855c0-12.015-9.34-21.353-21.304-21.353h-213.627c-11.966 0-21.304 9.338-21.304 21.353v128.116c0 12.013 9.338 21.354 21.304 21.354h213.626c11.966 0 21.304-9.34 21.304-21.354v-128.117zM941.864 448.287c0-12.016-9.34-21.353-21.304-21.353h-213.627c-11.966 0-21.304 9.337-21.304 21.353v128.117c0 12.013 9.338 21.353 21.304 21.353h213.626c11.966 0 21.304-9.34 21.304-21.353v-128.118z" />
<glyph unicode="&#xe666;" glyph-name="warn-fill" d="M942.656 126.624l-340.544 609.792c-22.144 39.712-55.104 62.496-90.304 62.496-35.232 0-68.16-22.784-90.368-62.528l-340.128-609.728c-22.016-39.456-24.256-79.456-6.112-110.4 18.144-30.88 54.464-48.256 99.68-48.256h674.24c45.184 0 81.536 17.376 99.648 48.256 18.176 30.944 15.904 70.912-6.112 110.368zM480 576c0 17.664 14.336 32 32 32s32-14.336 32-32v-288c0-17.696-14.336-32-32-32s-32 14.304-32 32v288zM512 63.872c-26.528 0-48 21.504-48 48s21.472 48 48 48 48-21.504 48-48-21.472-48-48-48z" />
<glyph unicode="&#xe668;" glyph-name="warn-o" d="M849.12-32.704h-674.24c-45.216 0-81.536 17.728-99.68 48.64s-15.936 71.296 6.080 110.752l340.192 609.664c22.144 39.744 55.072 62.528 90.304 62.528s68.128-22.752 90.336-62.464l340.544-609.792c22.016-39.456 24.288-79.808 6.112-110.72-18.112-30.912-54.464-48.608-99.648-48.608zM511.808 734.88c-11.2 0-24.032-11.104-34.432-29.696l-340.192-609.728c-10.656-19.136-13.152-36.32-6.784-47.168 6.368-10.816 22.592-17.024 44.48-17.024h674.24c21.92 0 38.112 6.176 44.48 17.024 6.336 10.816 3.872 28-6.816 47.136l-340.544 609.76c-10.368 18.592-23.264 29.696-34.432 29.696zM512 256c-17.664 0-32 14.304-32 32v288c0 17.664 14.336 32 32 32s32-14.336 32-32v-288c0-17.696-14.336-32-32-32zM464 143.872c0-26.51 21.49-48 48-48s48 21.49 48 48c0 26.51-21.49 48-48 48s-48-21.49-48-48z" />
<glyph unicode="&#xe6d1;" glyph-name="slide-left" d="M536.74 384c0-3.876 1.541-7.598 4.28-10.332l264.018-263.895c2.642-2.641 6.293-4.275 10.324-4.275 8.067 0 14.605 6.539 14.605 14.605 0 4.033-1.636 7.686-4.28 10.33l-253.676 253.568 253.676 253.568c2.654 2.643 4.299 6.301 4.298 10.342 0 8.060-6.533 14.593-14.592 14.592-0.011 0-0.023 0-0.035 0-3.736 0-7.468-1.423-10.32-4.27l-264.018-263.905c-2.644-2.641-4.28-6.293-4.28-10.324 0-0.001 0-0.001 0-0.003zM198.308 373.668l264.012-263.895c2.642-2.641 6.293-4.275 10.324-4.275 8.067 0 14.605 6.539 14.605 14.605 0 4.033-1.636 7.686-4.28 10.33l-253.681 253.568 253.681 253.568c2.645 2.644 4.281 6.297 4.281 10.332 0 8.068-6.54 14.608-14.608 14.608-4.033 0-7.684-1.634-10.327-4.276l-264.008-263.905c-2.644-2.642-4.279-6.296-4.279-10.33s1.635-7.686 4.279-10.33z" />
<glyph unicode="&#xe6e4;" glyph-name="info-fill" d="M512 830.016c-245.952 0-446.016-200.064-446.016-446.016s200.064-446.016 446.016-446.016 446.016 200.064 446.016 446.016-200.064 446.016-446.016 446.016zM544 160c0-17.696-14.304-32-32-32s-32 14.304-32 32v288c0 17.696 14.304 32 32 32s32-14.304 32-32v-288zM512 544c-26.496 0-48 21.536-48 48 0 26.528 21.504 48 48 48s48-21.472 48-48c0-26.464-21.504-48-48-48z" />
<glyph unicode="&#xe6e5;" glyph-name="info-o" d="M512-62.016c-245.92 0-446.016 200.064-446.016 446.016 0 245.92 200.096 446.016 446.016 446.016 245.952 0 446.016-200.064 446.016-446.016s-200.064-446.016-446.016-446.016zM512 766.016c-210.656 0-382.016-171.36-382.016-382.016 0-210.624 171.36-382.016 382.016-382.016 210.624 0 382.016 171.36 382.016 382.016s-171.392 382.016-382.016 382.016zM464 592c0-26.51 21.49-48 48-48s48 21.49 48 48c0 26.51-21.49 48-48 48s-48-21.49-48-48zM512 128c-17.664 0-32 14.304-32 32v288c0 17.664 14.336 32 32 32s32-14.336 32-32v-288c0-17.696-14.336-32-32-32z" />
<glyph unicode="&#xe6e6;" glyph-name="brush_fill" d="M879.040 572.64l-176.8 176.768c-11.572 11.494-27.516 18.597-45.12 18.597-17.715 0-33.75-7.194-45.343-18.82l-67.361-67.393 44.864-44.64 0.96 0.192h0.032l221.792-221.856 66.72 66.72c11.626 11.589 18.819 27.619 18.819 45.328 0 17.598-7.103 33.537-18.598 45.107l0.003-0.003M325.888 80.64l-13.6 13.632-102.4 102.784-49.888 53.184v-156.128c0-35.136 28.576-63.68 63.68-63.68h154.208l-11.648 11.2-40.352 38.976zM545.024 592.128l-45.248 45.056-320.16-320.16 266.976-266.976 318.976 318.976-43.936 46.496z" />
<glyph unicode="&#xe700;" glyph-name="minus" d="M215.369 416.959h593.262q13.645 0 23.302-9.655t9.657-23.303-9.657-23.303-23.302-9.655h-593.262q-13.645 0-23.302 9.655t-9.657 23.303 9.657 23.303 23.302 9.655z" />
<glyph unicode="&#xe750;" glyph-name="map" d="M981.999 862.293c-7.526 4.659-16.947 5.069-24.883 1.126l-295.731-147.866-295.731 147.866c-7.219 3.584-15.667 3.584-22.886 0l-307.2-153.6c-8.653-4.352-14.131-13.21-14.131-22.886v-768c0-8.858 4.608-17.101 12.134-21.76 4.096-2.56 8.755-3.84 13.466-3.84 3.891 0 7.834 0.922 11.469 2.714l295.731 147.866 295.731-147.866c7.219-3.584 15.718-3.584 22.886 0l307.2 153.6c8.653 4.352 14.131 13.21 14.131 22.886v768c0 8.858-4.608 17.101-12.134 21.76zM328.533 88.354l-256-128v710.758l256 128v-710.758zM379.733 799.112l256-128v-710.758l-256 128v710.758zM942.933 88.354l-256-128v710.758l256 128v-710.758z" />
<glyph unicode="&#xe771;" glyph-name="caret-left" d="M704 678.4v-582.4c0-19.199-25.6-31.999-38.399-19.2l-339.2 294.4c-12.799 6.4-12.8 25.6 0 38.4l339.2 281.6c19.199 12.8 38.399 6.4 38.4-12.8z" />
<glyph unicode="&#xe772;" glyph-name="caret-right" d="M320 89.6v582.4c0 19.199 25.6 31.999 38.399 19.2l339.2-294.4c12.799-6.4 12.8-25.6 0-38.4l-339.2-281.6c-19.199-12.8-38.399-6.4-38.4 12.8z" />
<glyph unicode="&#xe778;" glyph-name="caret-up" d="M806.4 192h-582.4c-19.2 0-32 25.6-19.2 38.4l294.4 339.2c6.4 12.8 25.6 12.8 38.4 0l281.6-339.2c12.8-19.2 6.4-38.4-12.8-38.4z" />
<glyph unicode="&#xe900;" glyph-name="travel-walk" d="M563.2 512l73.728-110.592c15.872-24.064 51.712-43.008 80.384-43.008h153.088v102.4h-153.6l-73.728 110.592c-20.018 27.942-43.738 51.661-70.768 71.058l-0.912 0.622-67.584 45.056c-12.935 7.887-28.583 12.557-45.321 12.557-15.281 0-29.653-3.892-42.179-10.739l0.46 0.23-211.968-126.976v-256h102.4v204.8l102.4 51.2-153.6-716.8h102.4l120.32 391.68 84.48-84.48v-307.2h102.4v409.6l-138.24 138.24 35.84 117.76zM614.4 665.6c56.554 0 102.4 45.846 102.4 102.4s-45.846 102.4-102.4 102.4v0c-56.554 0-102.4-45.846-102.4-102.4s45.846-102.4 102.4-102.4v0z" />
<glyph unicode="&#xe901;" glyph-name="bike" d="M810 22c82 0 150 66 150 148s-68 150-150 150-148-68-148-150 66-148 148-148zM810 384c120 0 214-94 214-214s-94-212-214-212-212 92-212 212 92 214 212 214zM460 448l94-98v-264h-84v212l-138 120c-18 12-24 34-24 60 0 22 6 42 24 60l120 120c12 18 34 24 60 24s46-6 68-24l82-82c38-38 88-64 152-64v-86c-90 0-160 34-216 90l-34 34zM214 22c82 0 148 66 148 148s-66 150-148 150-150-68-150-150 68-148 150-148zM214 384c120 0 212-94 212-214s-92-212-212-212-214 92-214 212 94 214 214 214zM662 662c-46 0-86 38-86 84s40 86 86 86 84-40 84-86-38-84-84-84z" />
<glyph unicode="&#xe902;" glyph-name="bus" horiz-adv-x="878" d="M219.429 182.857c0 40.571-32.571 73.143-73.143 73.143s-73.143-32.571-73.143-73.143 32.571-73.143 73.143-73.143 73.143 32.571 73.143 73.143zM804.571 182.857c0 40.571-32.571 73.143-73.143 73.143s-73.143-32.571-73.143-73.143 32.571-73.143 73.143-73.143 73.143 32.571 73.143 73.143zM778.286 409.143l-41.143 219.429c-3.429 17.143-18.286 29.714-36 29.714h-524.571c-17.714 0-32.571-12.571-36-29.714l-41.143-219.429c-4-22.857 13.143-43.429 36-43.429h606.857c22.857 0 40 20.571 36 43.429zM649.143 758.857c0 15.429-12 27.429-27.429 27.429h-365.714c-14.857 0-27.429-12-27.429-27.429s12.571-27.429 27.429-27.429h365.714c15.429 0 27.429 12 27.429 27.429zM877.714 344.571v-344.571h-73.143v-73.143c0-40.571-32.571-73.143-73.143-73.143s-73.143 32.571-73.143 73.143v73.143h-438.857v-73.143c0-40.571-32.571-73.143-73.143-73.143s-73.143 32.571-73.143 73.143v73.143h-73.143v344.571c0 46.857 4 81.714 14.286 127.429l58.857 259.429c10.857 91.429 170.857 146.286 365.714 146.286s354.857-54.857 365.714-146.286l60-259.429c10.286-45.714 13.143-80.571 13.143-127.429z" />
<glyph unicode="&#xe91d;" glyph-name="heart-fill" d="M512-27.42q-13.92 0-23.58 9.63l-334.29 322.5q-5.37 4.29-14.73 13.92t-29.73 35.1-36.42 52.23-28.65 64.83-12.6 73.92q0 117.87 68.040 184.29t188.040 66.42q33.21 0 67.77-11.52t64.29-31.080 51.15-36.69 40.71-36.42q19.29 19.29 40.71 36.42t51.15 36.69 64.29 31.080 67.77 11.52q120 0 188.040-66.42t68.040-184.29q0-118.38-122.67-241.080l-333.75-321.42q-9.63-9.63-23.58-9.63z" />
<glyph unicode="&#xe989;" glyph-name="enlarge" d="M1024 896h-416l160-160-192-192 96-96 192 192 160-160zM1024-128v416l-160-160-192 192-96-96 192-192-160-160zM0-128h416l-160 160 192 192-96 96-192-192-160 160zM0 896v-416l160 160 192-192 96 96-192 192 160 160z" />
</font>
</defs>
</svg>
